  0
SECTION
  2
HEADER
  9
$ACADVER
  1
AC1015
  9
$ACADMAINTVER
 70
     6
  9
$DWGCODEPAGE
  3
ANSI_1252
  9
$INSBASE
 10
0.0
 20
0.0
 30
0.0
  9
$EXTMIN
 10
-67.88611264
 20
-62.53747208
 30
0.0
  9
$EXTMAX
 10
67.88605168
 20
62.53259782
 30
0.0
  9
$LIMMIN
 10
0.0
 20
0.0
  9
$LIMMAX
 10
420.0
 20
297.0
  9
$ORTHOMODE
 70
     0
  9
$REGENMODE
 70
     1
  9
$FILLMODE
 70
     1
  9
$QTEXTMODE
 70
     0
  9
$MIRRTEXT
 70
     1
  9
$LTSCALE
 40
1.0
  9
$ATTMODE
 70
     1
  9
$TEXTSIZE
 40
3.5
  9
$TRACEWID
 40
1.0
  9
$TEXTSTYLE
  7
Standard
  9
$CLAYER
  8
0
  9
$CELTYPE
  6
ByLayer
  9
$CECOLOR
 62
   256
  9
$CELTSCALE
 40
1.0
  9
$DISPSILH
 70
     0
  9
$DIMSCALE
 40
1.0
  9
$DIMASZ
 40
3.556
  9
$DIMEXO
 40
1.0
  9
$DIMDLI
 40
3.75
  9
$DIMRND
 40
0.0
  9
$DIMDLE
 40
0.0
  9
$DIMEXE
 40
1.0
  9
$DIMTP
 40
0.0
  9
$DIMTM
 40
0.0
  9
$DIMTXT
 40
3.5
  9
$DIMCEN
 40
2.5
  9
$DIMTSZ
 40
0.0
  9
$DIMTOL
 70
     0
  9
$DIMLIM
 70
     0
  9
$DIMTIH
 70
     1
  9
$DIMTOH
 70
     1
  9
$DIMSE1
 70
     0
  9
$DIMSE2
 70
     0
  9
$DIMTAD
 70
     1
  9
$DIMZIN
 70
     0
  9
$DIMBLK
  1

  9
$DIMASO
 70
     1
  9
$DIMSHO
 70
     1
  9
$DIMPOST
  1

  9
$DIMAPOST
  1

  9
$DIMALT
 70
     0
  9
$DIMALTD
 70
     3
  9
$DIMALTF
 40
0.0393700787
  9
$DIMLFAC
 40
1.0
  9
$DIMTOFL
 70
     1
  9
$DIMTVP
 40
0.0
  9
$DIMTIX
 70
     0
  9
$DIMSOXD
 70
     0
  9
$DIMSAH
 70
     0
  9
$DIMBLK1
  1

  9
$DIMBLK2
  1

  9
$DIMSTYLE
  2
ISO-25
  9
$DIMCLRD
 70
     0
  9
$DIMCLRE
 70
     0
  9
$DIMCLRT
 70
     0
  9
$DIMTFAC
 40
1.0
  9
$DIMGAP
 40
1.524
  9
$DIMJUST
 70
     0
  9
$DIMSD1
 70
     0
  9
$DIMSD2
 70
     0
  9
$DIMTOLJ
 70
     0
  9
$DIMTZIN
 70
     0
  9
$DIMALTZ
 70
     0
  9
$DIMALTTZ
 70
     0
  9
$DIMUPT
 70
     0
  9
$DIMDEC
 70
     2
  9
$DIMTDEC
 70
     2
  9
$DIMALTU
 70
     2
  9
$DIMALTTD
 70
     3
  9
$DIMTXSTY
  7
Standard
  9
$DIMAUNIT
 70
     0
  9
$DIMADEC
 70
     2
  9
$DIMALTRND
 40
0.0
  9
$DIMAZIN
 70
     0
  9
$DIMDSEP
 70
    44
  9
$DIMATFIT
 70
     3
  9
$DIMFRAC
 70
     0
  9
$DIMLDRBLK
  1

  9
$DIMLUNIT
 70
     2
  9
$DIMLWD
 70
    -2
  9
$DIMLWE
 70
    -2
  9
$DIMTMOVE
 70
     0
  9
$LUNITS
 70
     2
  9
$LUPREC
 70
     2
  9
$SKETCHINC
 40
1.0
  9
$FILLETRAD
 40
10.0
  9
$AUNITS
 70
     0
  9
$AUPREC
 70
     2
  9
$MENU
  1
.
  9
$ELEVATION
 40
0.0
  9
$PELEVATION
 40
0.0
  9
$THICKNESS
 40
0.0
  9
$LIMCHECK
 70
     0
  9
$CHAMFERA
 40
0.0
  9
$CHAMFERB
 40
0.0
  9
$CHAMFERC
 40
0.0
  9
$CHAMFERD
 40
0.0
  9
$SKPOLY
 70
     0
  9
$TDCREATE
 40
2457535.443721401
  9
$TDUCREATE
 40
2457535.735388067
  9
$TDUPDATE
 40
2457535.443770556
  9
$TDUUPDATE
 40
2457535.735437222
  9
$TDINDWG
 40
0.0000000116
  9
$TDUSRTIMER
 40
0.0000000116
  9
$USRTIMER
 70
     1
  9
$ANGBASE
 50
0.0
  9
$ANGDIR
 70
     0
  9
$PDMODE
 70
     0
  9
$PDSIZE
 40
-1.0
  9
$PLINEWID
 40
0.0
  9
$SPLFRAME
 70
     0
  9
$SPLINETYPE
 70
     6
  9
$SPLINESEGS
 70
     8
  9
$HANDSEED
  5
253
  9
$SURFTAB1
 70
     6
  9
$SURFTAB2
 70
     6
  9
$SURFTYPE
 70
     6
  9
$SURFU
 70
     6
  9
$SURFV
 70
     6
  9
$UCSBASE
  2

  9
$UCSNAME
  2

  9
$UCSORG
 10
0.0
 20
0.0
 30
0.0
  9
$UCSXDIR
 10
1.0
 20
0.0
 30
0.0
  9
$UCSYDIR
 10
0.0
 20
1.0
 30
0.0
  9
$UCSORTHOREF
  2

  9
$UCSORTHOVIEW
 70
     0
  9
$UCSORGTOP
 10
0.0
 20
0.0
 30
0.0
  9
$UCSORGBOTTOM
 10
0.0
 20
0.0
 30
0.0
  9
$UCSORGLEFT
 10
0.0
 20
0.0
 30
0.0
  9
$UCSORGRIGHT
 10
0.0
 20
0.0
 30
0.0
  9
$UCSORGFRONT
 10
0.0
 20
0.0
 30
0.0
  9
$UCSORGBACK
 10
0.0
 20
0.0
 30
0.0
  9
$PUCSBASE
  2

  9
$PUCSNAME
  2

  9
$PUCSORG
 10
0.0
 20
0.0
 30
0.0
  9
$PUCSXDIR
 10
1.0
 20
0.0
 30
0.0
  9
$PUCSYDIR
 10
0.0
 20
1.0
 30
0.0
  9
$PUCSORTHOREF
  2

  9
$PUCSORTHOVIEW
 70
     0
  9
$PUCSORGTOP
 10
0.0
 20
0.0
 30
0.0
  9
$PUCSORGBOTTOM
 10
0.0
 20
0.0
 30
0.0
  9
$PUCSORGLEFT
 10
0.0
 20
0.0
 30
0.0
  9
$PUCSORGRIGHT
 10
0.0
 20
0.0
 30
0.0
  9
$PUCSORGFRONT
 10
0.0
 20
0.0
 30
0.0
  9
$PUCSORGBACK
 10
0.0
 20
0.0
 30
0.0
  9
$USERI1
 70
     0
  9
$USERI2
 70
     0
  9
$USERI3
 70
     0
  9
$USERI4
 70
     0
  9
$USERI5
 70
     0
  9
$USERR1
 40
0.0
  9
$USERR2
 40
0.0
  9
$USERR3
 40
0.0
  9
$USERR4
 40
0.0
  9
$USERR5
 40
0.0
  9
$WORLDVIEW
 70
     1
  9
$SHADEDGE
 70
     3
  9
$SHADEDIF
 70
    70
  9
$TILEMODE
 70
     1
  9
$MAXACTVP
 70
    64
  9
$PINSBASE
 10
0.0
 20
0.0
 30
0.0
  9
$PLIMCHECK
 70
     0
  9
$PEXTMIN
 10
1.0000000000E+20
 20
1.0000000000E+20
 30
1.0000000000E+20
  9
$PEXTMAX
 10
-1.0000000000E+20
 20
-1.0000000000E+20
 30
-1.0000000000E+20
  9
$PLIMMIN
 10
0.0
 20
0.0
  9
$PLIMMAX
 10
420.0
 20
297.0
  9
$UNITMODE
 70
     0
  9
$VISRETAIN
 70
     1
  9
$PLINEGEN
 70
     0
  9
$PSLTSCALE
 70
     1
  9
$TREEDEPTH
 70
  3020
  9
$CMLSTYLE
  2
Standard
  9
$CMLJUST
 70
     0
  9
$CMLSCALE
 40
20.0
  9
$PROXYGRAPHICS
 70
     1
  9
$MEASUREMENT
 70
     1
  9
$CELWEIGHT
370
    -1
  9
$ENDCAPS
280
     0
  9
$JOINSTYLE
280
     0
  9
$LWDISPLAY
290
     1
  9
$INSUNITS
 70
     4
  9
$HYPERLINKBASE
  1

  9
$STYLESHEET
  1

  9
$XEDIT
290
     1
  9
$CEPSNTYPE
380
     0
  9
$PSTYLEMODE
290
     1
  9
$FINGERPRINTGUID
  2
{1827B9A9-ED64-4762-B416-0457A4EC22A1}
  9
$VERSIONGUID
  2
{FAEB1C32-E019-11D5-929B-00C0DF256EC4}
  9
$EXTNAMES
290
     1
  9
$PSVPSCALE
 40
0.0
  9
$OLESTARTUP
290
     0
  0
ENDSEC
  0
SECTION
  2
CLASSES
  0
CLASS
  1
ACDBDICTIONARYWDFLT
  2
AcDbDictionaryWithDefault
  3
ObjectDBX Classes
 90
        0
280
     0
281
     0
  0
CLASS
  1
VISUALSTYLE
  2
AcDbVisualStyle
  3
ObjectDBX Classes
 90
     4095
280
     0
281
     0
  0
CLASS
  1
MATERIAL
  2
AcDbMaterial
  3
ObjectDBX Classes
 90
     1153
280
     0
281
     0
  0
CLASS
  1
SCALE
  2
AcDbScale
  3
ObjectDBX Classes
 90
     1153
280
     0
281
     0
  0
CLASS
  1
TABLESTYLE
  2
AcDbTableStyle
  3
ObjectDBX Classes
 90
     4095
280
     0
281
     0
  0
CLASS
  1
MLEADERSTYLE
  2
AcDbMLeaderStyle
  3
ACDB_MLEADERSTYLE_CLASS
 90
     4095
280
     0
281
     0
  0
CLASS
  1
SUN
  2
AcDbSun
  3
SCENEOE
 90
     1153
280
     0
281
     0
  0
CLASS
  1
ACDBPLACEHOLDER
  2
AcDbPlaceHolder
  3
ObjectDBX Classes
 90
        0
280
     0
281
     0
  0
CLASS
  1
LAYOUT
  2
AcDbLayout
  3
ObjectDBX Classes
 90
        0
280
     0
281
     0
  0
ENDSEC
  0
SECTION
  2
TABLES
  0
TABLE
  2
VPORT
  5
8
330
0
100
AcDbSymbolTable
 70
     1
  0
VPORT
  5
29
330
8
100
AcDbSymbolTableRecord
100
AcDbViewportTableRecord
  2
*Active
 70
     0
 10
0.0
 20
0.0
 11
1.0
 21
1.0
 12
-0.00003048
 22
-0.00243713
 13
0.0
 23
0.0
 14
10.0
 24
10.0
 15
10.0
 25
10.0
 16
0.0
 26
0.0
 36
1.0
 17
0.0
 27
0.0
 37
0.0
 40
127.571471298
 41
1.085568789
 42
50.0
 43
0.0
 44
0.0
 50
0.0
 51
0.0
 71
     0
 72
   100
 73
     1
 74
     3
 75
     0
 76
     0
 77
     0
 78
     0
281
     0
 65
     1
110
0.0
120
0.0
130
0.0
111
1.0
121
0.0
131
0.0
112
0.0
122
1.0
132
0.0
 79
     0
146
0.0
  0
ENDTAB
  0
TABLE
  2
LTYPE
  5
5
330
0
100
AcDbSymbolTable
 70
     6
  0
LTYPE
  5
14
330
5
100
AcDbSymbolTableRecord
100
AcDbLinetypeTableRecord
  2
ByBlock
 70
     0
  3

 72
    65
 73
     0
 40
0.0
  0
LTYPE
  5
15
330
5
100
AcDbSymbolTableRecord
100
AcDbLinetypeTableRecord
  2
ByLayer
 70
     0
  3

 72
    65
 73
     0
 40
0.0
  0
LTYPE
  5
16
330
5
100
AcDbSymbolTableRecord
100
AcDbLinetypeTableRecord
  2
Continuous
 70
     0
  3
Solid line
 72
    65
 73
     0
 40
0.0
  0
LTYPE
  5
6E
330
5
100
AcDbSymbolTableRecord
100
AcDbLinetypeTableRecord
  2
HIDDEN
 70
     0
  3
Hidden __ __ __ __ __ __ __ __ __ __ __ __ __ __
 72
    65
 73
     2
 40
1.905
 49
1.27
 74
     0
 49
-0.635
 74
     0
  0
LTYPE
  5
6F
330
5
100
AcDbSymbolTableRecord
100
AcDbLinetypeTableRecord
  2
PHANTOM
 70
     0
  3
Phantom ______  __  __  ______  __  __  ______
 72
    65
 73
     6
 40
12.7
 49
6.35
 74
     0
 49
-1.27
 74
     0
 49
1.27
 74
     0
 49
-1.27
 74
     0
 49
1.27
 74
     0
 49
-1.27
 74
     0
  0
LTYPE
  5
70
330
5
100
AcDbSymbolTableRecord
100
AcDbLinetypeTableRecord
  2
CENTER
 70
     0
  3
Center ____ _ ____ _ ____ _ ____ _ ____ _ ____
 72
    65
 73
     4
 40
10.16
 49
6.35
 74
     0
 49
-1.27
 74
     0
 49
1.27
 74
     0
 49
-1.27
 74
     0
  0
LTYPE
  5
71
330
5
100
AcDbSymbolTableRecord
100
AcDbLinetypeTableRecord
  2
CENTERX2
 70
     0
  3
Center (2x) ________  __  ________  __  _____
 72
    65
 73
     4
 40
20.32
 49
12.7
 74
     0
 49
-2.54
 74
     0
 49
2.54
 74
     0
 49
-2.54
 74
     0
  0
LTYPE
  5
72
330
5
100
AcDbSymbolTableRecord
100
AcDbLinetypeTableRecord
  2
DOT2
 70
     0
  3
Dot (.5x) ........................................
 72
    65
 73
     2
 40
0.635
 49
0.0
 74
     0
 49
-0.635
 74
     0
  0
ENDTAB
  0
TABLE
  2
LAYER
  5
2
330
0
100
AcDbSymbolTable
 70
     1
  0
LAYER
  5
10
330
2
100
AcDbSymbolTableRecord
100
AcDbLayerTableRecord
  2
0
 70
     0
 62
     7
  6
Continuous
370
    -3
390
F
  0
ENDTAB
  0
TABLE
  2
STYLE
  5
3
330
0
100
AcDbSymbolTable
 70
     1
  0
STYLE
  5
11
330
3
100
AcDbSymbolTableRecord
100
AcDbTextStyleTableRecord
  2
Standard
 70
     0
 40
0.0
 41
1.0
 50
0.0
 71
     0
 42
3.5
  3
txt
  4

  0
ENDTAB
  0
TABLE
  2
VIEW
  5
6
330
0
100
AcDbSymbolTable
 70
     0
  0
ENDTAB
  0
TABLE
  2
UCS
  5
7
330
0
100
AcDbSymbolTable
 70
     0
  0
ENDTAB
  0
TABLE
  2
APPID
  5
9
330
0
100
AcDbSymbolTable
 70
     1
  0
APPID
  5
12
330
9
100
AcDbSymbolTableRecord
100
AcDbRegAppTableRecord
  2
ACAD
 70
     0
  0
ENDTAB
  0
TABLE
  2
DIMSTYLE
  5
A
330
0
100
AcDbSymbolTable
 70
     1
100
AcDbDimStyleTable
  0
DIMSTYLE
105
27
330
A
100
AcDbSymbolTableRecord
100
AcDbDimStyleTableRecord
  2
ISO-25
 70
     0
 41
2.5
 42
0.625
 43
3.75
 44
1.25
 73
     0
 74
     0
 77
     1
 78
     8
140
2.5
141
2.5
143
0.0393700787
147
0.625
171
     3
172
     1
178
     0
271
     2
272
     2
274
     3
278
    44
283
     0
284
     8
340
11
  0
ENDTAB
  0
TABLE
  2
BLOCK_RECORD
  5
1
330
0
100
AcDbSymbolTable
 70
     1
  0
BLOCK_RECORD
  5
1F
330
1
100
AcDbSymbolTableRecord
100
AcDbBlockTableRecord
  2
*Model_Space
340
22
  0
BLOCK_RECORD
  5
1B
330
1
100
AcDbSymbolTableRecord
100
AcDbBlockTableRecord
  2
*Paper_Space
340
1E
  0
BLOCK_RECORD
  5
23
330
1
100
AcDbSymbolTableRecord
100
AcDbBlockTableRecord
  2
*Paper_Space0
340
26
  0
ENDTAB
  0
ENDSEC
  0
SECTION
  2
BLOCKS
  0
BLOCK
  5
20
330
1F
100
AcDbEntity
  8
0
100
AcDbBlockBegin
  2
*Model_Space
 70
     0
 10
0.0
 20
0.0
 30
0.0
  3
*Model_Space
  1

  0
ENDBLK
  5
21
330
1F
100
AcDbEntity
  8
0
100
AcDbBlockEnd
  0
BLOCK
  5
1C
330
1B
100
AcDbEntity
 67
     1
  8
0
100
AcDbBlockBegin
  2
*Paper_Space
 70
     0
 10
0.0
 20
0.0
 30
0.0
  3
*Paper_Space
  1

  0
ENDBLK
  5
1D
330
1B
100
AcDbEntity
 67
     1
  8
0
100
AcDbBlockEnd
  0
BLOCK
  5
24
330
23
100
AcDbEntity
  8
0
100
AcDbBlockBegin
  2
*Paper_Space0
 70
     0
 10
0.0
 20
0.0
 30
0.0
  3
*Paper_Space0
  1

  0
ENDBLK
  5
25
330
23
100
AcDbEntity
  8
0
100
AcDbBlockEnd
  0
ENDSEC
  0
SECTION
  2
ENTITIES
  0
CIRCLE
  5
73
330
1F
100
AcDbEntity
  8
0
  6
Continuous
 62
     7
100
AcDbCircle
 10
42.2249854
 20
39.38016
 30
0.0
 40
3.999999999999993
  0
CIRCLE
  5
74
330
1F
100
AcDbEntity
  8
0
  6
Continuous
 62
     7
100
AcDbCircle
 10
51.9684254
 20
22.50186
 30
0.0
 40
4.000000000000007
  0
CIRCLE
  5
75
330
1F
100
AcDbEntity
  8
0
  6
Continuous
 62
     7
100
AcDbCircle
 10
35.7276654
 20
50.63236
 30
0.0
 40
4.000000000000002
  0
CIRCLE
  5
76
330
1F
100
AcDbEntity
  8
0
  6
Continuous
 62
     7
100
AcDbCircle
 10
32.4815454
 20
22.50186
 30
0.0
 40
3.999999999999994
  0
CIRCLE
  5
77
330
1F
100
AcDbEntity
  8
0
  6
Continuous
 62
     7
100
AcDbCircle
 10
61.7144054
 20
5.62356
 30
0.0
 40
3.999999999999994
  0
CIRCLE
  5
78
330
1F
100
AcDbEntity
  8
0
  6
Continuous
 62
     7
100
AcDbCircle
 10
42.2249854
 20
5.62356
 30
0.0
 40
3.999999999999994
  0
CIRCLE
  5
79
330
1F
100
AcDbEntity
  8
0
  6
Continuous
 62
     7
100
AcDbCircle
 10
25.98422794
 20
56.25846
 30
0.0
 40
3.999999999999998
  0
CIRCLE
  5
7A
330
1F
100
AcDbEntity
  8
0
  6
Continuous
 62
     7
100
AcDbCircle
 10
12.99212794
 20
56.25846
 30
0.0
 40
4.0
  0
CIRCLE
  5
7B
330
1F
100
AcDbEntity
  8
0
  6
Continuous
 62
     7
100
AcDbCircle
 10
22.7414328
 20
39.37
 30
0.0
 40
4.000000000000002
  0
CIRCLE
  5
7C
330
1F
100
AcDbEntity
  8
0
  6
Continuous
 62
     7
100
AcDbCircle
 10
3.2461454
 20
39.38016
 30
0.0
 40
4.000000000000001
  0
CIRCLE
  5
7D
330
1F
100
AcDbEntity
  8
0
  6
Continuous
 62
     7
100
AcDbCircle
 10
12.9921254
 20
22.50186
 30
0.0
 40
3.999999999999999
  0
CIRCLE
  5
7E
330
1F
100
AcDbEntity
  8
0
  6
Continuous
 62
     7
100
AcDbCircle
 10
22.7355654
 20
5.62356
 30
0.0
 40
3.999999999999997
  0
CIRCLE
  5
7F
330
1F
100
AcDbEntity
  8
0
  6
Continuous
 62
     7
100
AcDbCircle
 10
3.2461454
 20
5.62356
 30
0.0
 40
4.0
  0
CIRCLE
  5
80
330
1F
100
AcDbEntity
  8
0
  6
Continuous
 62
     7
100
AcDbCircle
 10
55.2170854
 20
-5.62356
 30
0.0
 40
4.000000000000008
  0
CIRCLE
  5
81
330
1F
100
AcDbEntity
  8
0
  6
Continuous
 62
     7
100
AcDbCircle
 10
55.2170854
 20
-16.87576
 30
0.0
 40
4.000000000000007
  0
CIRCLE
  5
82
330
1F
100
AcDbEntity
  8
0
  6
Continuous
 62
     7
100
AcDbCircle
 10
35.7276654
 20
-5.62356
 30
0.0
 40
4.000000000000001
  0
CIRCLE
  5
83
330
1F
100
AcDbEntity
  8
0
  6
Continuous
 62
     7
100
AcDbCircle
 10
45.4736454
 20
-22.50186
 30
0.0
 40
4.000000000000001
  0
CIRCLE
  5
84
330
1F
100
AcDbEntity
  8
0
  6
Continuous
 62
     7
100
AcDbCircle
 10
45.4735946
 20
-33.75406
 30
0.0
 40
4.000000000000008
  0
CIRCLE
  5
85
330
1F
100
AcDbEntity
  8
0
  6
Continuous
 62
     7
100
AcDbCircle
 10
35.7276654
 20
-39.38016
 30
0.0
 40
4.000000000000002
  0
CIRCLE
  5
86
330
1F
100
AcDbEntity
  8
0
  6
Continuous
 62
     7
100
AcDbCircle
 10
35.7276146
 20
-50.63236
 30
0.0
 40
4.0
  0
CIRCLE
  5
87
330
1F
100
AcDbEntity
  8
0
  6
Continuous
 62
     7
100
AcDbCircle
 10
16.2407854
 20
-5.62356
 30
0.0
 40
3.999999999999997
  0
CIRCLE
  5
88
330
1F
100
AcDbEntity
  8
0
  6
Continuous
 62
     7
100
AcDbCircle
 10
25.9842254
 20
-22.50186
 30
0.0
 40
3.999999999999997
  0
CIRCLE
  5
89
330
1F
100
AcDbEntity
  8
0
  6
Continuous
 62
     7
100
AcDbCircle
 10
6.4947546
 20
-22.50186
 30
0.0
 40
3.999999999999999
  0
CIRCLE
  5
8A
330
1F
100
AcDbEntity
  8
0
  6
Continuous
 62
     7
100
AcDbCircle
 10
16.2407346
 20
-39.38016
 30
0.0
 40
4.000000000000002
  0
CIRCLE
  5
8B
330
1F
100
AcDbEntity
  8
0
  6
Continuous
 62
     7
100
AcDbCircle
 10
25.9842254
 20
-56.25846254
 30
0.0
 40
3.999999999999998
  0
CIRCLE
  5
8C
330
1F
100
AcDbEntity
  8
0
  6
Continuous
 62
     7
100
AcDbCircle
 10
6.4947546
 20
-56.25846
 30
0.0
 40
4.0
  0
CIRCLE
  5
8D
330
1F
100
AcDbEntity
  8
0
  6
Continuous
 62
     7
100
AcDbCircle
 10
-6.4947546
 20
56.25846
 30
0.0
 40
4.000000000000001
  0
CIRCLE
  5
8E
330
1F
100
AcDbEntity
  8
0
  6
Continuous
 62
     7
100
AcDbCircle
 10
-6.4947546
 20
22.50186
 30
0.0
 40
4.0
  0
CIRCLE
  5
8F
330
1F
100
AcDbEntity
  8
0
  6
Continuous
 62
     7
100
AcDbCircle
 10
-16.2407346
 20
39.38016
 30
0.0
 40
4.0
  0
CIRCLE
  5
90
330
1F
100
AcDbEntity
  8
0
  6
Continuous
 62
     7
100
AcDbCircle
 10
-25.9841746
 20
56.25846
 30
0.0
 40
3.999999999999998
  0
CIRCLE
  5
91
330
1F
100
AcDbEntity
  8
0
  6
Continuous
 62
     7
100
AcDbCircle
 10
-35.7276146
 20
39.38016
 30
0.0
 40
3.999999999999996
  0
CIRCLE
  5
92
330
1F
100
AcDbEntity
  8
0
  6
Continuous
 62
     7
100
AcDbCircle
 10
-16.24073714
 20
5.62356
 30
0.0
 40
4.000000000000001
  0
CIRCLE
  5
93
330
1F
100
AcDbEntity
  8
0
  6
Continuous
 62
     7
100
AcDbCircle
 10
-25.9841746
 20
22.50186
 30
0.0
 40
3.999999999999997
  0
CIRCLE
  5
94
330
1F
100
AcDbEntity
  8
0
  6
Continuous
 62
     7
100
AcDbCircle
 10
-35.7276146
 20
50.63236
 30
0.0
 40
3.999999999999996
  0
CIRCLE
  5
95
330
1F
100
AcDbEntity
  8
0
  6
Continuous
 62
     7
100
AcDbCircle
 10
-45.4735946
 20
33.75406
 30
0.0
 40
4.000000000000002
  0
CIRCLE
  5
96
330
1F
100
AcDbEntity
  8
0
  6
Continuous
 62
     7
100
AcDbCircle
 10
-45.4735946
 20
22.50186
 30
0.0
 40
4.000000000000001
  0
CIRCLE
  5
97
330
1F
100
AcDbEntity
  8
0
  6
Continuous
 62
     7
100
AcDbCircle
 10
-55.2170346
 20
16.87576
 30
0.0
 40
4.000000000000001
  0
CIRCLE
  5
98
330
1F
100
AcDbEntity
  8
0
  6
Continuous
 62
     7
100
AcDbCircle
 10
-35.72761714
 20
5.62356
 30
0.0
 40
4.000000000000004
  0
CIRCLE
  5
99
330
1F
100
AcDbEntity
  8
0
  6
Continuous
 62
     7
100
AcDbCircle
 10
-55.2170346
 20
5.62356
 30
0.0
 40
4.0
  0
CIRCLE
  5
9A
330
1F
100
AcDbEntity
  8
0
  6
Continuous
 62
     7
100
AcDbCircle
 10
-3.2460946
 20
-5.62356
 30
0.0
 40
4.0
  0
CIRCLE
  5
9B
330
1F
100
AcDbEntity
  8
0
  6
Continuous
 62
     7
100
AcDbCircle
 10
-12.9921254
 20
-22.50186
 30
0.0
 40
4.000000000000001
  0
CIRCLE
  5
9C
330
1F
100
AcDbEntity
  8
0
  6
Continuous
 62
     7
100
AcDbCircle
 10
-22.7355654
 20
-5.62356
 30
0.0
 40
4.000000000000001
  0
CIRCLE
  5
9D
330
1F
100
AcDbEntity
  8
0
  6
Continuous
 62
     7
100
AcDbCircle
 10
-32.4814946
 20
-22.50186
 30
0.0
 40
3.999999999999997
  0
CIRCLE
  5
9E
330
1F
100
AcDbEntity
  8
0
  6
Continuous
 62
     7
100
AcDbCircle
 10
-3.2460946
 20
-39.38016
 30
0.0
 40
4.000000000000001
  0
CIRCLE
  5
9F
330
1F
100
AcDbEntity
  8
0
  6
Continuous
 62
     7
100
AcDbCircle
 10
-22.7414328
 20
-39.37
 30
0.0
 40
3.999999999999998
  0
CIRCLE
  5
A0
330
1F
100
AcDbEntity
  8
0
  6
Continuous
 62
     7
100
AcDbCircle
 10
-12.9920746
 20
-56.25846
 30
0.0
 40
4.000000000000002
  0
CIRCLE
  5
A1
330
1F
100
AcDbEntity
  8
0
  6
Continuous
 62
     7
100
AcDbCircle
 10
-25.9841746
 20
-56.25846
 30
0.0
 40
3.999999999999998
  0
CIRCLE
  5
A2
330
1F
100
AcDbEntity
  8
0
  6
Continuous
 62
     7
100
AcDbCircle
 10
-42.2249346
 20
-5.62356
 30
0.0
 40
4.000000000000001
  0
CIRCLE
  5
A3
330
1F
100
AcDbEntity
  8
0
  6
Continuous
 62
     7
100
AcDbCircle
 10
-61.71440794
 20
-5.62356254
 30
0.0
 40
4.0
  0
CIRCLE
  5
A4
330
1F
100
AcDbEntity
  8
0
  6
Continuous
 62
     7
100
AcDbCircle
 10
-35.7276146
 20
-50.63235492
 30
0.0
 40
3.999999999999996
  0
CIRCLE
  5
A5
330
1F
100
AcDbEntity
  8
0
  6
Continuous
 62
     7
100
AcDbCircle
 10
-51.9683746
 20
-22.50186
 30
0.0
 40
3.999999999999994
  0
CIRCLE
  5
A6
330
1F
100
AcDbEntity
  8
0
  6
Continuous
 62
     7
100
AcDbCircle
 10
-42.22498794
 20
-39.38016
 30
0.0
 40
4.000000000000002
  0
LWPOLYLINE
  5
A7
330
1F
100
AcDbEntity
  8
0
  6
Continuous
 62
     7
100
AcDbPolyline
 90
        3
 70
   128
 43
0.0
 10
-57.8171610832
 20
-24.93613758
 10
-57.808871936
 20
-24.9485579768
 10
-57.80235074
 20
-24.95831686
  0
LWPOLYLINE
  5
A8
330
1F
100
AcDbEntity
  8
0
  6
Continuous
 62
     7
100
AcDbPolyline
 90
        3
 70
   128
 43
0.0
 10
-57.802349329
 20
-24.95831686
 10
-53.723127707
 20
-32.0234070411
 10
-50.51827844
 20
-37.57469752
  0
LWPOLYLINE
  5
A9
330
1F
100
AcDbEntity
  8
0
  6
Continuous
 62
     7
100
AcDbPolyline
 90
        3
 70
   128
 43
0.0
 10
-50.5182743073
 20
-37.57469752
 10
-50.5018241168
 20
-37.599326376
 10
-50.48889572
 20
-37.61867762
  0
LWPOLYLINE
  5
AA
330
1F
100
AcDbEntity
  8
0
  6
Continuous
 62
     7
100
AcDbPolyline
 90
        3
 70
   128
 43
0.0
 10
-50.4888892174
 20
-37.61867762
 10
-50.4518478896
 20
-37.6434316472
 10
-50.42273888
 20
-37.66288124
  0
LWPOLYLINE
  5
AB
330
1F
100
AcDbEntity
  8
0
  6
Continuous
 62
     7
100
AcDbPolyline
 90
        3
 70
   128
 43
0.0
 10
-50.4227280617
 20
-37.66288124
 10
-50.3790384848
 20
-37.6715735264
 10
-50.34470246
 20
-37.67840318
  0
LWPOLYLINE
  5
AC
330
1F
100
AcDbEntity
  8
0
  6
Continuous
 62
     7
100
AcDbPolyline
 90
        3
 70
   128
 43
0.0
 10
-50.3446757793
 20
-37.67840318
 10
-50.3010020648
 20
-37.6697108936
 10
-50.26666604
 20
-37.66288124
  0
LWPOLYLINE
  5
AD
330
1F
100
AcDbEntity
  8
0
  6
Continuous
 62
     7
100
AcDbPolyline
 90
        3
 70
   128
 43
0.0
 10
-50.2666532993
 20
-37.66288124
 10
-50.2542835587
 20
-37.6545168566
 10
-50.24470266
 20
-37.64769204
  0
LWPOLYLINE
  5
AE
330
1F
100
AcDbEntity
  8
0
  6
Continuous
 62
     7
100
AcDbPolyline
 90
        3
 70
   128
 43
0.0
 10
-50.2446889877
 20
-37.64769204
 10
-50.2196982904
 20
-37.6332547642
 10
-50.200052
 20
-37.62190596
  0
LWPOLYLINE
  5
AF
330
1F
100
AcDbEntity
  8
0
  6
Continuous
 62
     7
100
AcDbPolyline
 90
        3
 70
   128
 43
0.0
 10
-50.2000451088
 20
-37.62190596
 10
-50.2018641376
 20
-37.6187681456
 10
-50.20328796
 20
-37.61630272
  0
LWPOLYLINE
  5
B0
330
1F
100
AcDbEntity
  8
0
  6
Continuous
 62
     7
100
AcDbPolyline
 90
        3
 70
   128
 43
0.0
 10
-50.2032637596
 20
-37.61630272
 10
-50.1011183904
 20
-37.5739820528
 10
-50.0208423
 20
-37.5407301
  0
LWPOLYLINE
  5
B1
330
1F
100
AcDbEntity
  8
0
  6
Continuous
 62
     7
100
AcDbPolyline
 90
        3
 70
   128
 43
0.0
 10
-50.020813942
 20
-37.5407301
 10
-49.9111994408
 20
-37.5262955848
 10
-49.82505148
 20
-37.51495418
  0
LWPOLYLINE
  5
B2
330
1F
100
AcDbEntity
  8
0
  6
Continuous
 62
     7
100
AcDbPolyline
 90
        3
 70
   128
 43
0.0
 10
-49.8250424862
 20
-37.51495418
 10
-49.7154086208
 20
-37.5293886952
 10
-49.62926066
 20
-37.5407301
  0
LWPOLYLINE
  5
B3
330
1F
100
AcDbEntity
  8
0
  6
Continuous
 62
     7
100
AcDbPolyline
 90
        3
 70
   128
 43
0.0
 10
-49.6292412281
 20
-37.5407301
 10
-49.5270910904
 20
-37.5830507672
 10
-49.446815
 20
-37.61630272
  0
LWPOLYLINE
  5
B4
330
1F
100
AcDbEntity
  8
0
  6
Continuous
 62
     7
100
AcDbPolyline
 90
        3
 70
   128
 43
0.0
 10
-49.4467914104
 20
-37.61630272
 10
-49.3590799456
 20
-37.683624912
 10
-49.29014526
 20
-37.73652092
  0
LWPOLYLINE
  5
B5
330
1F
100
AcDbEntity
  8
0
  6
Continuous
 62
     7
100
AcDbPolyline
 90
        3
 70
   128
 43
0.0
 10
-49.2901206017
 20
-37.73652092
 10
-49.222823068
 20
-37.8242559744
 10
-49.16992706
 20
-37.89319066
  0
LWPOLYLINE
  5
B6
330
1F
100
AcDbEntity
  8
0
  6
Continuous
 62
     7
100
AcDbPolyline
 90
        3
 70
   128
 43
0.0
 10
-49.1698980331
 20
-37.89319066
 10
-49.1730648744
 20
-37.89500422
 10
-49.1755303
 20
-37.89642916
  0
LWPOLYLINE
  5
B7
330
1F
100
AcDbEntity
  8
0
  6
Continuous
 62
     7
100
AcDbPolyline
 90
        3
 70
   128
 43
0.0
 10
-49.1755008698
 20
-37.89642916
 10
-48.1955303915
 20
-39.5938397971
 10
-47.42552872
 20
-40.92751784
  0
LWPOLYLINE
  5
B8
330
1F
100
AcDbEntity
  8
0
  6
Continuous
 62
     7
100
AcDbPolyline
 90
        3
 70
   128
 43
0.0
 10
-47.4255084991
 20
-40.92751784
 10
-47.4223909056
 20
-40.9257057024
 10
-47.41992548
 20
-40.92428188
  0
LWPOLYLINE
  5
B9
330
1F
100
AcDbEntity
  8
0
  6
Continuous
 62
     7
100
AcDbPolyline
 90
        3
 70
   128
 43
0.0
 10
-47.4199056625
 20
-40.92428188
 10
-47.3776048128
 20
-41.0264514496
 10
-47.34435286
 20
-41.10672754
  0
LWPOLYLINE
  5
BA
330
1F
100
AcDbEntity
  8
0
  6
Continuous
 62
     7
100
AcDbPolyline
 90
        3
 70
   128
 43
0.0
 10
-47.344326973
 20
-41.10672754
 10
-47.3299183448
 20
-41.2163703992
 10
-47.31857694
 20
-41.30251836
  0
LWPOLYLINE
  5
BB
330
1F
100
AcDbEntity
  8
0
  6
Continuous
 62
     7
100
AcDbPolyline
 90
        3
 70
   128
 43
0.0
 10
-47.3185479641
 20
-41.30251836
 10
-47.3330114552
 20
-41.4121612192
 10
-47.34435286
 20
-41.49830918
  0
LWPOLYLINE
  5
BC
330
1F
100
AcDbEntity
  8
0
  6
Continuous
 62
     7
100
AcDbPolyline
 90
        3
 70
   128
 43
0.0
 10
-47.344326973
 20
-41.49830918
 10
-47.3866735272
 20
-41.6004787496
 10
-47.41992548
 20
-41.68075484
  0
LWPOLYLINE
  5
BD
330
1F
100
AcDbEntity
  8
0
  6
Continuous
 62
     7
100
AcDbPolyline
 90
        3
 70
   128
 43
0.0
 10
-47.4199056625
 20
-41.68075484
 10
-47.487247672
 20
-41.7684898944
 10
-47.54014368
 20
-41.83742458
  0
LWPOLYLINE
  5
BE
330
1F
100
AcDbEntity
  8
0
  6
Continuous
 62
     7
100
AcDbPolyline
 90
        3
 70
   128
 43
0.0
 10
-47.540128231
 20
-41.83742458
 10
-47.6278787344
 20
-41.904746772
 10
-47.69681342
 20
-41.95764278
  0
LWPOLYLINE
  5
BF
330
1F
100
AcDbEntity
  8
0
  6
Continuous
 62
     7
100
AcDbPolyline
 90
        3
 70
   128
 43
0.0
 10
-47.6967990398
 20
-41.95764278
 10
-47.6986255576
 20
-41.9545035432
 10
-47.70004938
 20
-41.952037
  0
LWPOLYLINE
  5
C0
330
1F
100
AcDbEntity
  8
0
  6
Continuous
 62
     7
100
AcDbPolyline
 90
        3
 70
   128
 43
0.0
 10
-47.700047493
 20
-41.952037
 10
-47.7250930875
 20
-41.9664082582
 10
-47.74491848
 20
-41.97744716
  0
LWPOLYLINE
  5
C1
330
1F
100
AcDbEntity
  8
0
  6
Continuous
 62
     7
100
AcDbPolyline
 90
        3
 70
   128
 43
0.0
 10
-47.7448999882
 20
-41.97744716
 10
-47.769547336
 20
-41.9939014832
 10
-47.78889858
 20
-42.00682988
  0
LWPOLYLINE
  5
C2
330
1F
100
AcDbEntity
  8
0
  6
Continuous
 62
     7
100
AcDbPolyline
 90
        3
 70
   128
 43
0.0
 10
-47.788888216
 20
-42.00682988
 10
-47.8136526072
 20
-42.0438777104
 10
-47.8331022
 20
-42.07298672
  0
LWPOLYLINE
  5
C3
330
1F
100
AcDbEntity
  8
0
  6
Continuous
 62
     7
100
AcDbPolyline
 90
        3
 70
   128
 43
0.0
 10
-47.8330850601
 20
-42.07298672
 10
-47.8417944864
 20
-42.1166871152
 10
-47.84862414
 20
-42.15102314
  0
LWPOLYLINE
  5
C4
330
1F
100
AcDbEntity
  8
0
  6
Continuous
 62
     7
100
AcDbPolyline
 90
        3
 70
   128
 43
0.0
 10
-47.8486120701
 20
-42.15102314
 10
-47.8399318536
 20
-42.1947235352
 10
-47.8331022
 20
-42.22905956
  0
LWPOLYLINE
  5
C5
330
1F
100
AcDbEntity
  8
0
  6
Continuous
 62
     7
100
AcDbPolyline
 90
        3
 70
   128
 43
0.0
 10
-47.8330850601
 20
-42.22905956
 10
-47.8247364784
 20
-42.2414406189
 10
-47.81790538
 20
-42.2510204
  0
LWPOLYLINE
  5
C6
330
1F
100
AcDbEntity
  8
0
  6
Continuous
 62
     7
100
AcDbPolyline
 90
        3
 70
   128
 43
0.0
 10
-47.8178858757
 20
-42.2510204
 10
-43.6816415672
 20
-49.4152395488
 10
-40.43172
 20
-55.04426888
  0
LWPOLYLINE
  5
C7
330
1F
100
AcDbEntity
  8
0
  6
Continuous
 62
     7
100
AcDbPolyline
 90
        3
 70
   128
 43
0.0
 10
-40.4317080975
 20
-55.04426888
 10
-38.1063975056
 20
-56.3847344297
 10
-36.27950834
 20
-57.43821888
  0
LWPOLYLINE
  5
C8
330
1F
100
AcDbEntity
  8
0
  6
Continuous
 62
     7
100
AcDbPolyline
 90
        3
 70
   128
 43
0.0
 10
-36.2794995308
 20
-57.43821888
 10
-36.2671533736
 20
-57.4464744896
 10
-36.2574459
 20
-57.45296104
  0
LINE
  5
C9
330
1F
100
AcDbEntity
  8
0
  6
Continuous
 62
     7
100
AcDbLine
 10
-36.2574458122
 20
-57.45296104
 30
0.0
 11
-36.17940948
 21
-57.46848298
 31
0.0
  0
LWPOLYLINE
  5
CA
330
1F
100
AcDbEntity
  8
0
  6
Continuous
 62
     7
100
AcDbPolyline
 90
        3
 70
   128
 43
0.0
 10
-36.1793935299
 20
-57.46848298
 10
-36.1357090848
 20
-57.4597906936
 10
-36.10137306
 20
-57.45296104
  0
LWPOLYLINE
  5
CB
330
1F
100
AcDbEntity
  8
0
  6
Continuous
 62
     7
100
AcDbPolyline
 90
        3
 70
   128
 43
0.0
 10
-36.1013710499
 20
-57.45296104
 10
-36.0643252296
 20
-57.4282070128
 10
-36.03521622
 20
-57.40875742
  0
LWPOLYLINE
  5
CC
330
1F
100
AcDbEntity
  8
0
  6
Continuous
 62
     7
100
AcDbPolyline
 90
        3
 70
   128
 43
0.0
 10
-36.0352098942
 20
-57.40875742
 10
-36.0188270222
 20
-57.3840916248
 10
-36.00620434
 20
-57.36456142
  0
LWPOLYLINE
  5
CD
330
1F
100
AcDbEntity
  8
0
  6
Continuous
 62
     7
100
AcDbPolyline
 90
        3
 70
   128
 43
0.0
 10
-36.0061824322
 20
-57.36456142
 10
-35.9921642757
 20
-57.3402478907
 10
-35.98113454
 20
-57.32114266
  0
LWPOLYLINE
  5
CE
330
1F
100
AcDbEntity
  8
0
  6
Continuous
 62
     7
100
AcDbPolyline
 90
        3
 70
   128
 43
0.0
 10
-35.981118679
 20
-57.32114266
 10
-35.9842723544
 20
-57.3193305224
 10
-35.98673778
 20
-57.3179067
  0
LWPOLYLINE
  5
CF
330
1F
100
AcDbEntity
  8
0
  6
Continuous
 62
     7
100
AcDbPolyline
 90
        3
 70
   128
 43
0.0
 10
-35.9867215157
 20
-57.3179067
 10
-35.919415588
 20
-57.2301716456
 10
-35.86651958
 20
-57.16123696
  0
LWPOLYLINE
  5
D0
330
1F
100
AcDbEntity
  8
0
  6
Continuous
 62
     7
100
AcDbPolyline
 90
        3
 70
   128
 43
0.0
 10
-35.8664989471
 20
-57.16123696
 10
-35.7787845256
 20
-57.093914768
 10
-35.70984984
 20
-57.04101876
  0
LWPOLYLINE
  5
D1
330
1F
100
AcDbEntity
  8
0
  6
Continuous
 62
     7
100
AcDbPolyline
 90
        3
 70
   128
 43
0.0
 10
-35.7098281384
 20
-57.04101876
 10
-35.6076802704
 20
-56.9986980928
 10
-35.52740418
 20
-56.96544614
  0
LWPOLYLINE
  5
D2
330
1F
100
AcDbEntity
  8
0
  6
Continuous
 62
     7
100
AcDbPolyline
 90
        3
 70
   128
 43
0.0
 10
-35.5273783207
 20
-56.96544614
 10
-35.4177613208
 20
-56.9510116248
 10
-35.33161336
 20
-56.93967022
  0
LWPOLYLINE
  5
D3
330
1F
100
AcDbEntity
  8
0
  6
Continuous
 62
     7
100
AcDbPolyline
 90
        3
 70
   128
 43
0.0
 10
-35.3316068649
 20
-56.93967022
 10
-35.2219705008
 20
-56.9541047352
 10
-35.13582254
 20
-56.96544614
  0
LWPOLYLINE
  5
D4
330
1F
100
AcDbEntity
  8
0
  6
Continuous
 62
     7
100
AcDbPolyline
 90
        3
 70
   128
 43
0.0
 10
-35.1358056068
 20
-56.96544614
 10
-35.0336529704
 20
-57.0077668072
 10
-34.95337688
 20
-57.04101876
  0
LWPOLYLINE
  5
D5
330
1F
100
AcDbEntity
  8
0
  6
Continuous
 62
     7
100
AcDbPolyline
 90
        3
 70
   128
 43
0.0
 10
-34.9533557892
 20
-57.04101876
 10
-33.2577783805
 20
-58.0241574592
 10
-31.92552416
 20
-58.79662358
  0
LWPOLYLINE
  5
D6
330
1F
100
AcDbEntity
  8
0
  6
Continuous
 62
     7
100
AcDbPolyline
 90
        3
 70
   128
 43
0.0
 10
-31.9254994392
 20
-58.79662358
 10
-31.9237120224
 20
-58.7934857656
 10
-31.9222882
 20
-58.79102034
  0
LWPOLYLINE
  5
D7
330
1F
100
AcDbEntity
  8
0
  6
Continuous
 62
     7
100
AcDbPolyline
 90
        3
 70
   128
 43
0.0
 10
-31.9222807884
 20
-58.79102034
 10
-31.8345531456
 20
-58.858342532
 10
-31.76561846
 20
-58.91123854
  0
LWPOLYLINE
  5
D8
330
1F
100
AcDbEntity
  8
0
  6
Continuous
 62
     7
100
AcDbPolyline
 90
        3
 70
   128
 43
0.0
 10
-31.7656099796
 20
-58.91123854
 10
-31.698296268
 20
-58.9989735944
 10
-31.64540026
 20
-59.06790828
  0
LWPOLYLINE
  5
D9
330
1F
100
AcDbEntity
  8
0
  6
Continuous
 62
     7
100
AcDbPolyline
 90
        3
 70
   128
 43
0.0
 10
-31.6453874111
 20
-59.06790828
 10
-31.6030795928
 20
-59.1700778496
 10
-31.56982764
 20
-59.25035394
  0
LWPOLYLINE
  5
DA
330
1F
100
AcDbEntity
  8
0
  6
Continuous
 62
     7
100
AcDbPolyline
 90
        3
 70
   128
 43
0.0
 10
-31.5698087215
 20
-59.25035394
 10
-31.5553931248
 20
-59.3599967992
 10
-31.54405172
 20
-59.44614476
  0
LWPOLYLINE
  5
DB
330
1F
100
AcDbEntity
  8
0
  6
Continuous
 62
     7
100
AcDbPolyline
 90
        3
 70
   128
 43
0.0
 10
-31.5440297127
 20
-59.44614476
 10
-31.5584862352
 20
-59.5557876192
 10
-31.56982764
 20
-59.64193558
  0
LWPOLYLINE
  5
DC
330
1F
100
AcDbEntity
  8
0
  6
Continuous
 62
     7
100
AcDbPolyline
 90
        3
 70
   128
 43
0.0
 10
-31.5698087215
 20
-59.64193558
 10
-31.6121483072
 20
-59.7441051496
 10
-31.64540026
 20
-59.82438124
  0
LWPOLYLINE
  5
DD
330
1F
100
AcDbEntity
  8
0
  6
Continuous
 62
     7
100
AcDbPolyline
 90
        3
 70
   128
 43
0.0
 10
-31.6453874111
 20
-59.82438124
 10
-31.6485394968
 20
-59.8225691024
 10
-31.65100604
 20
-59.82114528
  0
LWPOLYLINE
  5
DE
330
1F
100
AcDbEntity
  8
0
  6
Continuous
 62
     7
100
AcDbPolyline
 90
        3
 70
   128
 43
0.0
 10
-31.6509902477
 20
-59.82114528
 10
-31.665108831
 20
-59.8454232925
 10
-31.67644414
 20
-59.86435068
  0
LWPOLYLINE
  5
DF
330
1F
100
AcDbEntity
  8
0
  6
Continuous
 62
     7
100
AcDbPolyline
 90
        3
 70
   128
 43
0.0
 10
-31.676441431
 20
-59.86435068
 10
-31.684743844
 20
-59.8767710768
 10
-31.69126504
 20
-59.88652996
  0
LWPOLYLINE
  5
E0
330
1F
100
AcDbEntity
  8
0
  6
Continuous
 62
     7
100
AcDbPolyline
 90
        3
 70
   128
 43
0.0
 10
-31.6912531853
 20
-59.88652996
 10
-31.6999573264
 20
-59.9302303552
 10
-31.70678698
 20
-59.96456638
  0
LWPOLYLINE
  5
E1
330
1F
100
AcDbEntity
  8
0
  6
Continuous
 62
     7
100
AcDbPolyline
 90
        3
 70
   128
 43
0.0
 10
-31.7067801952
 20
-59.96456638
 10
-31.6980946936
 20
-60.0082667752
 10
-31.69126504
 20
-60.0426028
  0
LWPOLYLINE
  5
E2
330
1F
100
AcDbEntity
  8
0
  6
Continuous
 62
     7
100
AcDbPolyline
 90
        3
 70
   128
 43
0.0
 10
-31.6912531853
 20
-60.0426028
 10
-31.6665110128
 20
-60.0796506304
 10
-31.64706142
 20
-60.10875964
  0
LWPOLYLINE
  5
E3
330
1F
100
AcDbEntity
  8
0
  6
Continuous
 62
     7
100
AcDbPolyline
 90
        3
 70
   128
 43
0.0
 10
-31.6470563412
 20
-60.10875964
 10
-31.6224614171
 20
-60.1251056355
 10
-31.60298988
 20
-60.13769786
  0
LWPOLYLINE
  5
E4
330
1F
100
AcDbEntity
  8
0
  6
Continuous
 62
     7
100
AcDbPolyline
 90
        3
 70
   128
 43
0.0
 10
-31.6029787064
 20
-60.13769786
 10
-29.2790599584
 20
-61.4815714232
 10
-27.45311502
 20
-62.53747208
  0
LINE
  5
E5
330
1F
100
AcDbEntity
  8
0
  6
Continuous
 62
     7
100
AcDbLine
 10
-27.453109622
 20
-62.53747208
 30
0.0
 11
27.45131162
 21
-62.53747208
 31
0.0
  0
LWPOLYLINE
  5
E6
330
1F
100
AcDbEntity
  8
0
  6
Continuous
 62
     7
100
AcDbPolyline
 90
        3
 70
   128
 43
0.0
 10
27.4513065815
 20
-62.53747208
 10
29.7762576222
 20
-61.1936580368
 10
31.60314736
 20
-60.13805346
  0
LWPOLYLINE
  5
E7
330
1F
100
AcDbEntity
  8
0
  6
Continuous
 62
     7
100
AcDbPolyline
 90
        3
 70
   128
 43
0.0
 10
31.603127718
 20
-60.13805346
 10
31.6277278544
 20
-60.121631852
 10
31.6470411
 20
-60.10872916
  0
LWPOLYLINE
  5
E8
330
1F
100
AcDbEntity
  8
0
  6
Continuous
 62
     7
100
AcDbPolyline
 90
        3
 70
   128
 43
0.0
 10
31.6470265388
 20
-60.10872916
 10
31.6717951272
 20
-60.0716813296
 10
31.69124472
 20
-60.04257232
  0
LWPOLYLINE
  5
E9
330
1F
100
AcDbEntity
  8
0
  6
Continuous
 62
     7
100
AcDbPolyline
 90
        3
 70
   128
 43
0.0
 10
31.6912233829
 20
-60.04257232
 10
31.6999370064
 20
-59.9988719248
 10
31.70676666
 20
-59.9645359
  0
LWPOLYLINE
  5
EA
330
1F
100
AcDbEntity
  8
0
  6
Continuous
 62
     7
100
AcDbPolyline
 90
        3
 70
   128
 43
0.0
 10
31.7067503929
 20
-59.9645359
 10
31.6980743736
 20
-59.9208355048
 10
31.69124472
 20
-59.88649948
  0
LWPOLYLINE
  5
EB
330
1F
100
AcDbEntity
  8
0
  6
Continuous
 62
     7
100
AcDbPolyline
 90
        3
 70
   128
 43
0.0
 10
31.6912233829
 20
-59.88649948
 10
31.6828803366
 20
-59.8741184211
 10
31.67605552
 20
-59.86453864
  0
LWPOLYLINE
  5
EC
330
1F
100
AcDbEntity
  8
0
  6
Continuous
 62
     7
100
AcDbPolyline
 90
        3
 70
   128
 43
0.0
 10
31.6760540009
 20
-59.86453864
 10
31.662023544
 20
-59.8402383584
 10
31.65099842
 20
-59.82114528
  0
LWPOLYLINE
  5
ED
330
1F
100
AcDbEntity
  8
0
  6
Continuous
 62
     7
100
AcDbPolyline
 90
        3
 70
   128
 43
0.0
 10
31.6509902477
 20
-59.82114528
 10
31.6478606056
 20
-59.8229574176
 10
31.64539518
 20
-59.82438124
  0
LWPOLYLINE
  5
EE
330
1F
100
AcDbEntity
  8
0
  6
Continuous
 62
     7
100
AcDbPolyline
 90
        3
 70
   128
 43
0.0
 10
31.6453874111
 20
-59.82438124
 10
31.6030745128
 20
-59.7222116704
 10
31.56982256
 20
-59.64193558
  0
LWPOLYLINE
  5
EF
330
1F
100
AcDbEntity
  8
0
  6
Continuous
 62
     7
100
AcDbPolyline
 90
        3
 70
   128
 43
0.0
 10
31.5698087215
 20
-59.64193558
 10
31.5553880448
 20
-59.5322927208
 10
31.54404664
 20
-59.44614476
  0
LWPOLYLINE
  5
F0
330
1F
100
AcDbEntity
  8
0
  6
Continuous
 62
     7
100
AcDbPolyline
 90
        3
 70
   128
 43
0.0
 10
31.5440297127
 20
-59.44614476
 10
31.5584811552
 20
-59.3365019008
 10
31.56982256
 20
-59.25035394
  0
LWPOLYLINE
  5
F1
330
1F
100
AcDbEntity
  8
0
  6
Continuous
 62
     7
100
AcDbPolyline
 90
        3
 70
   128
 43
0.0
 10
31.5698087215
 20
-59.25035394
 10
31.6121432272
 20
-59.1481843704
 10
31.64539518
 20
-59.06790828
  0
LWPOLYLINE
  5
F2
330
1F
100
AcDbEntity
  8
0
  6
Continuous
 62
     7
100
AcDbPolyline
 90
        3
 70
   128
 43
0.0
 10
31.6453874111
 20
-59.06790828
 10
31.712717372
 20
-58.9801732256
 10
31.76561338
 20
-58.91123854
  0
LWPOLYLINE
  5
F3
330
1F
100
AcDbEntity
  8
0
  6
Continuous
 62
     7
100
AcDbPolyline
 90
        3
 70
   128
 43
0.0
 10
31.7656099796
 20
-58.91123854
 10
31.8533484344
 20
-58.843916348
 10
31.92228312
 20
-58.79102034
  0
LWPOLYLINE
  5
F4
330
1F
100
AcDbEntity
  8
0
  6
Continuous
 62
     7
100
AcDbPolyline
 90
        3
 70
   128
 43
0.0
 10
31.9222807884
 20
-58.79102034
 10
31.92409668
 20
-58.7941581544
 10
31.92552162
 20
-58.79662358
  0
LWPOLYLINE
  5
F5
330
1F
100
AcDbEntity
  8
0
  6
Continuous
 62
     7
100
AcDbPolyline
 90
        3
 70
   128
 43
0.0
 10
31.9254994392
 20
-58.79662358
 10
33.6229322571
 20
-57.8166226952
 10
34.9566103
 20
-57.046622
  0
LWPOLYLINE
  5
F6
330
1F
100
AcDbEntity
  8
0
  6
Continuous
 62
     7
100
AcDbPolyline
 90
        3
 70
   128
 43
0.0
 10
34.9566042423
 20
-57.046622
 10
34.9547981624
 20
-57.0434841856
 10
34.95337434
 20
-57.04101876
  0
LWPOLYLINE
  5
F7
330
1F
100
AcDbEntity
  8
0
  6
Continuous
 62
     7
100
AcDbPolyline
 90
        3
 70
   128
 43
0.0
 10
34.9533557892
 20
-57.04101876
 10
35.0555439096
 20
-56.9986980928
 10
35.13582
 20
-56.96544614
  0
LWPOLYLINE
  5
F8
330
1F
100
AcDbEntity
  8
0
  6
Continuous
 62
     7
100
AcDbPolyline
 90
        3
 70
   128
 43
0.0
 10
35.1358056068
 20
-56.96544614
 10
35.2454628592
 20
-56.9510116248
 10
35.33161082
 20
-56.93967022
  0
LWPOLYLINE
  5
F9
330
1F
100
AcDbEntity
  8
0
  6
Continuous
 62
     7
100
AcDbPolyline
 90
        3
 70
   128
 43
0.0
 10
35.3316068649
 20
-56.93967022
 10
35.4412536792
 20
-56.9541047352
 10
35.52740164
 20
-56.96544614
  0
LWPOLYLINE
  5
FA
330
1F
100
AcDbEntity
  8
0
  6
Continuous
 62
     7
100
AcDbPolyline
 90
        3
 70
   128
 43
0.0
 10
35.5273783207
 20
-56.96544614
 10
35.6295712096
 20
-57.0077668072
 10
35.7098473
 20
-57.04101876
  0
LWPOLYLINE
  5
FB
330
1F
100
AcDbEntity
  8
0
  6
Continuous
 62
     7
100
AcDbPolyline
 90
        3
 70
   128
 43
0.0
 10
35.7098281384
 20
-57.04101876
 10
35.7975823544
 20
-57.108340952
 10
35.86651704
 20
-57.16123696
  0
LWPOLYLINE
  5
FC
330
1F
100
AcDbEntity
  8
0
  6
Continuous
 62
     7
100
AcDbPolyline
 90
        3
 70
   128
 43
0.0
 10
35.8664989471
 20
-57.16123696
 10
35.933839232
 20
-57.2489720144
 10
35.98673524
 20
-57.3179067
  0
LWPOLYLINE
  5
FD
330
1F
100
AcDbEntity
  8
0
  6
Continuous
 62
     7
100
AcDbPolyline
 90
        3
 70
   128
 43
0.0
 10
35.9867215157
 20
-57.3179067
 10
35.9835960032
 20
-57.31972026
 10
35.98112946
 20
-57.3211452
  0
LWPOLYLINE
  5
FE
330
1F
100
AcDbEntity
  8
0
  6
Continuous
 62
     7
100
AcDbPolyline
 90
        3
 70
   128
 43
0.0
 10
35.981118679
 20
-57.3211452
 10
35.9950944421
 20
-57.345479576
 10
36.00581064
 20
-57.36474938
  0
LWPOLYLINE
  5
FF
330
1F
100
AcDbEntity
  8
0
  6
Continuous
 62
     7
100
AcDbPolyline
 90
        3
 70
   128
 43
0.0
 10
36.005795002
 20
-57.36474938
 10
36.0222649632
 20
-57.3893768136
 10
36.03519336
 20
-57.40872694
  0
LWPOLYLINE
  5
100
330
1F
100
AcDbEntity
  8
0
  6
Continuous
 62
     7
100
AcDbPolyline
 90
        3
 70
   128
 43
0.0
 10
36.0351800919
 20
-57.40872694
 10
36.0722411904
 20
-57.4334809672
 10
36.1013502
 20
-57.45293056
  0
LWPOLYLINE
  5
101
330
1F
100
AcDbEntity
  8
0
  6
Continuous
 62
     7
100
AcDbPolyline
 90
        3
 70
   128
 43
0.0
 10
36.1013412476
 20
-57.45293056
 10
36.1450505952
 20
-57.4616228464
 10
36.17938662
 20
-57.4684525
  0
LWPOLYLINE
  5
102
330
1F
100
AcDbEntity
  8
0
  6
Continuous
 62
     7
100
AcDbPolyline
 90
        3
 70
   128
 43
0.0
 10
36.1793637276
 20
-57.4684525
 10
36.2230870152
 20
-57.4597602136
 10
36.25742304
 20
-57.45293056
  0
LWPOLYLINE
  5
103
330
1F
100
AcDbEntity
  8
0
  6
Continuous
 62
     7
100
AcDbPolyline
 90
        3
 70
   128
 43
0.0
 10
36.2574160099
 20
-57.45293056
 10
36.2697576058
 20
-57.4445975536
 10
36.2793026
 20
-57.43779216
  0
LWPOLYLINE
  5
104
330
1F
100
AcDbEntity
  8
0
  6
Continuous
 62
     7
100
AcDbPolyline
 90
        3
 70
   128
 43
0.0
 10
36.2792909145
 20
-57.43779216
 10
38.60364644
 20
-56.0974191232
 10
40.4299166
 20
-55.04426888
  0
LWPOLYLINE
  5
105
330
1F
100
AcDbEntity
  8
0
  6
Continuous
 62
     7
100
AcDbPolyline
 90
        3
 70
   128
 43
0.0
 10
40.4298901558
 20
-55.04426888
 10
44.5650630778
 20
-47.8821391936
 10
47.81435954
 20
-42.25490152
  0
LWPOLYLINE
  5
106
330
1F
100
AcDbEntity
  8
0
  6
Continuous
 62
     7
100
AcDbPolyline
 90
        3
 70
   128
 43
0.0
 10
47.8143393993
 20
-42.25490152
 10
47.822659244
 20
-42.2424811232
 10
47.82918044
 20
-42.23272224
  0
LWPOLYLINE
  5
107
330
1F
100
AcDbEntity
  8
0
  6
Continuous
 62
     7
100
AcDbPolyline
 90
        3
 70
   128
 43
0.0
 10
47.8291511536
 20
-42.23272224
 10
47.8378727264
 20
-42.1890218448
 10
47.84470238
 20
-42.15468582
  0
LWPOLYLINE
  5
108
330
1F
100
AcDbEntity
  8
0
  6
Continuous
 62
     7
100
AcDbPolyline
 90
        3
 70
   128
 43
0.0
 10
47.8446781635
 20
-42.15468582
 10
47.8360100936
 20
-42.1109854248
 10
47.82918044
 20
-42.0766494
  0
LWPOLYLINE
  5
109
330
1F
100
AcDbEntity
  8
0
  6
Continuous
 62
     7
100
AcDbPolyline
 90
        3
 70
   128
 43
0.0
 10
47.8291511536
 20
-42.0766494
 10
47.8044264128
 20
-42.0396015696
 10
47.78497682
 20
-42.01049256
  0
LWPOLYLINE
  5
10A
330
1F
100
AcDbEntity
  8
0
  6
Continuous
 62
     7
100
AcDbPolyline
 90
        3
 70
   128
 43
0.0
 10
47.7849543095
 20
-42.01049256
 10
47.7603110248
 20
-41.9941033622
 10
47.74078082
 20
-41.98148068
  0
LWPOLYLINE
  5
10B
330
1F
100
AcDbEntity
  8
0
  6
Continuous
 62
     7
100
AcDbPolyline
 90
        3
 70
   128
 43
0.0
 10
47.7407574654
 20
-41.98148068
 10
47.7165321909
 20
-41.9674794665
 10
47.69748144
 20
-41.956482
  0
LWPOLYLINE
  5
10C
330
1F
100
AcDbEntity
  8
0
  6
Continuous
 62
     7
100
AcDbPolyline
 90
        3
 70
   128
 43
0.0
 10
47.6974546909
 20
-41.956482
 10
47.6956693024
 20
-41.9596198144
 10
47.69424548
 20
-41.96208524
  0
LWPOLYLINE
  5
10D
330
1F
100
AcDbEntity
  8
0
  6
Continuous
 62
     7
100
AcDbPolyline
 90
        3
 70
   128
 43
0.0
 10
47.6942360401
 20
-41.96208524
 10
47.6065104256
 20
-41.894763048
 10
47.53757574
 20
-41.84186704
  0
LWPOLYLINE
  5
10E
330
1F
100
AcDbEntity
  8
0
  6
Continuous
 62
     7
100
AcDbPolyline
 90
        3
 70
   128
 43
0.0
 10
47.5375652313
 20
-41.84186704
 10
47.470253548
 20
-41.7541319856
 10
47.41735754
 20
-41.6851973
  0
LWPOLYLINE
  5
10F
330
1F
100
AcDbEntity
  8
0
  6
Continuous
 62
     7
100
AcDbPolyline
 90
        3
 70
   128
 43
0.0
 10
47.4173426628
 20
-41.6851973
 10
47.3750368728
 20
-41.5830277304
 10
47.34178492
 20
-41.50275164
  0
LWPOLYLINE
  5
110
330
1F
100
AcDbEntity
  8
0
  6
Continuous
 62
     7
100
AcDbPolyline
 90
        3
 70
   128
 43
0.0
 10
47.3417639732
 20
-41.50275164
 10
47.3273504048
 20
-41.3931087808
 10
47.316009
 20
-41.30696082
  0
LWPOLYLINE
  5
111
330
1F
100
AcDbEntity
  8
0
  6
Continuous
 62
     7
100
AcDbPolyline
 90
        3
 70
   128
 43
0.0
 10
47.3159849644
 20
-41.30696082
 10
47.3304435152
 20
-41.1973179608
 10
47.34178492
 20
-41.11117
  0
LWPOLYLINE
  5
112
330
1F
100
AcDbEntity
  8
0
  6
Continuous
 62
     7
100
AcDbPolyline
 90
        3
 70
   128
 43
0.0
 10
47.3417639732
 20
-41.11117
 10
47.3841055872
 20
-41.0090004304
 10
47.41735754
 20
-40.92872434
  0
LWPOLYLINE
  5
113
330
1F
100
AcDbEntity
  8
0
  6
Continuous
 62
     7
100
AcDbPolyline
 90
        3
 70
   128
 43
0.0
 10
47.4173426628
 20
-40.92872434
 10
47.4204967768
 20
-40.9305364776
 10
47.42296332
 20
-40.9319603
  0
LWPOLYLINE
  5
114
330
1F
100
AcDbEntity
  8
0
  6
Continuous
 62
     7
100
AcDbPolyline
 90
        3
 70
   128
 43
0.0
 10
47.4229454994
 20
-40.9319603
 10
48.4029637587
 20
-39.2345492168
 10
49.17296236
 20
-37.90086908
  0
LWPOLYLINE
  5
115
330
1F
100
AcDbEntity
  8
0
  6
Continuous
 62
     7
100
AcDbPolyline
 90
        3
 70
   128
 43
0.0
 10
49.17293787
 20
-37.90086908
 10
49.1698245456
 20
-37.8990569424
 10
49.16735912
 20
-37.89763312
  0
LWPOLYLINE
  5
116
330
1F
100
AcDbEntity
  8
0
  6
Continuous
 62
     7
100
AcDbPolyline
 90
        3
 70
   128
 43
0.0
 10
49.1673350334
 20
-37.89763312
 10
49.234681312
 20
-37.8098980656
 10
49.28757732
 20
-37.74096338
  0
LWPOLYLINE
  5
117
330
1F
100
AcDbEntity
  8
0
  6
Continuous
 62
     7
100
AcDbPolyline
 90
        3
 70
   128
 43
0.0
 10
49.2875576019
 20
-37.74096338
 10
49.3753123744
 20
-37.673641188
 10
49.44424706
 20
-37.62074518
  0
LWPOLYLINE
  5
118
330
1F
100
AcDbEntity
  8
0
  6
Continuous
 62
     7
100
AcDbPolyline
 90
        3
 70
   128
 43
0.0
 10
49.4442284107
 20
-37.62074518
 10
49.5464166296
 20
-37.5784245128
 10
49.62669272
 20
-37.54517256
  0
LWPOLYLINE
  5
119
330
1F
100
AcDbEntity
  8
0
  6
Continuous
 62
     7
100
AcDbPolyline
 90
        3
 70
   128
 43
0.0
 10
49.6266782284
 20
-37.54517256
 10
49.7363355792
 20
-37.5307380448
 10
49.82248354
 20
-37.51939664
  0
LWPOLYLINE
  5
11A
330
1F
100
AcDbEntity
  8
0
  6
Continuous
 62
     7
100
AcDbPolyline
 90
        3
 70
   128
 43
0.0
 10
49.8224794865
 20
-37.51939664
 10
49.9321263992
 20
-37.5338311552
 10
50.01827436
 20
-37.54517256
  0
LWPOLYLINE
  5
11B
330
1F
100
AcDbEntity
  8
0
  6
Continuous
 62
     7
100
AcDbPolyline
 90
        3
 70
   128
 43
0.0
 10
50.0182509422
 20
-37.54517256
 10
50.1204439296
 20
-37.5874932272
 10
50.20072002
 20
-37.62074518
  0
LWPOLYLINE
  5
11C
330
1F
100
AcDbEntity
  8
0
  6
Continuous
 62
     7
100
AcDbPolyline
 90
        3
 70
   128
 43
0.0
 10
50.2007007599
 20
-37.62074518
 10
50.1989036152
 20
-37.6238858392
 10
50.19747644
 20
-37.6263535
  0
LWPOLYLINE
  5
11D
330
1F
100
AcDbEntity
  8
0
  6
Continuous
 62
     7
100
AcDbPolyline
 90
        3
 70
   128
 43
0.0
 10
50.1974523067
 20
-37.6263535
 10
50.2216899142
 20
-37.6404160178
 10
50.24057008
 20
-37.65171794
  0
LWPOLYLINE
  5
11E
330
1F
100
AcDbEntity
  8
0
  6
Continuous
 62
     7
100
AcDbPolyline
 90
        3
 70
   128
 43
0.0
 10
50.2405464649
 20
-37.65171794
 10
50.2529890544
 20
-37.660017644
 10
50.26274682
 20
-37.66653884
  0
LWPOLYLINE
  5
11F
330
1F
100
AcDbEntity
  8
0
  6
Continuous
 62
     7
100
AcDbPolyline
 90
        3
 70
   128
 43
0.0
 10
50.2627193928
 20
-37.66653884
 10
50.3064472152
 20
-37.6752311264
 10
50.34078324
 20
-37.68206078
  0
LWPOLYLINE
  5
120
330
1F
100
AcDbEntity
  8
0
  6
Continuous
 62
     7
100
AcDbPolyline
 90
        3
 70
   128
 43
0.0
 10
50.3407716751
 20
-37.68206078
 10
50.3844836352
 20
-37.6733684936
 10
50.41881966
 20
-37.66653884
  0
LWPOLYLINE
  5
121
330
1F
100
AcDbEntity
  8
0
  6
Continuous
 62
     7
100
AcDbPolyline
 90
        3
 70
   128
 43
0.0
 10
50.4187941551
 20
-37.66653884
 10
50.4558674904
 20
-37.6417848128
 10
50.4849765
 20
-37.62233522
  0
LWPOLYLINE
  5
122
330
1F
100
AcDbEntity
  8
0
  6
Continuous
 62
     7
100
AcDbPolyline
 90
        3
 70
   128
 43
0.0
 10
50.4849553108
 20
-37.62233522
 10
50.5013665899
 20
-37.597670763
 10
50.51399346
 20
-37.57814684
  0
LWPOLYLINE
  5
123
330
1F
100
AcDbEntity
  8
0
  6
Continuous
 62
     7
100
AcDbPolyline
 90
        3
 70
   128
 43
0.0
 10
50.5139827728
 20
-37.57814684
 10
54.5931352523
 20
-30.5130097174
 10
57.79843152
 20
-24.961977
  0
LWPOLYLINE
  5
124
330
1F
100
AcDbEntity
  8
0
  6
Continuous
 62
     7
100
AcDbPolyline
 90
        3
 70
   128
 43
0.0
 10
57.7984154224
 20
-24.961977
 10
57.806731224
 20
-24.9495580256
 10
57.81325242
 20
-24.93980026
  0
LWPOLYLINE
  5
125
330
1F
100
AcDbEntity
  8
0
  6
Continuous
 62
     7
100
AcDbPolyline
 90
        3
 70
   128
 43
0.0
 10
57.8132271767
 20
-24.93980026
 10
57.8219447064
 20
-24.8960998648
 10
57.82877436
 20
-24.86176384
  0
LWPOLYLINE
  5
126
330
1F
100
AcDbEntity
  8
0
  6
Continuous
 62
     7
100
AcDbPolyline
 90
        3
 70
   128
 43
0.0
 10
57.8287541866
 20
-24.86176384
 10
57.8200820736
 20
-24.8180634448
 10
57.81325242
 20
-24.78372742
  0
LWPOLYLINE
  5
127
330
1F
100
AcDbEntity
  8
0
  6
Continuous
 62
     7
100
AcDbPolyline
 90
        3
 70
   128
 43
0.0
 10
57.8132271767
 20
-24.78372742
 10
57.7884983928
 20
-24.7466795896
 10
57.7690488
 20
-24.71757058
  0
LWPOLYLINE
  5
128
330
1F
100
AcDbEntity
  8
0
  6
Continuous
 62
     7
100
AcDbPolyline
 90
        3
 70
   128
 43
0.0
 10
57.7690303326
 20
-24.71757058
 10
57.744384343
 20
-24.7011813822
 10
57.72486042
 20
-24.6885587
  0
LWPOLYLINE
  5
129
330
1F
100
AcDbEntity
  8
0
  6
Continuous
 62
     7
100
AcDbPolyline
 90
        3
 70
   128
 43
0.0
 10
57.7248334885
 20
-24.6885587
 10
57.7006118751
 20
-24.6745584629
 10
57.68155596
 20
-24.66356002
  0
LWPOLYLINE
  5
12A
330
1F
100
AcDbEntity
  8
0
  6
Continuous
 62
     7
100
AcDbPolyline
 90
        3
 70
   128
 43
0.0
 10
57.681530714
 20
-24.66356002
 10
57.6797438224
 20
-24.6666978344
 10
57.67832
 20
-24.66916326
  0
LWPOLYLINE
  5
12B
330
1F
100
AcDbEntity
  8
0
  6
Continuous
 62
     7
100
AcDbPolyline
 90
        3
 70
   128
 43
0.0
 10
57.6783120632
 20
-24.66916326
 10
57.5905849456
 20
-24.601841068
 10
57.52165026
 20
-24.54894506
  0
LWPOLYLINE
  5
12C
330
1F
100
AcDbEntity
  8
0
  6
Continuous
 62
     7
100
AcDbPolyline
 90
        3
 70
   128
 43
0.0
 10
57.5216412544
 20
-24.54894506
 10
57.454328068
 20
-24.4612100056
 10
57.40143206
 20
-24.39227532
  0
LWPOLYLINE
  5
12D
330
1F
100
AcDbEntity
  8
0
  6
Continuous
 62
     7
100
AcDbPolyline
 90
        3
 70
   128
 43
0.0
 10
57.4014186859
 20
-24.39227532
 10
57.3591113928
 20
-24.2901057504
 10
57.32585944
 20
-24.20982966
  0
LWPOLYLINE
  5
12E
330
1F
100
AcDbEntity
  8
0
  6
Continuous
 62
     7
100
AcDbPolyline
 90
        3
 70
   128
 43
0.0
 10
57.3258399963
 20
-24.20982966
 10
57.3114249248
 20
-24.1001868008
 10
57.30008352
 20
-24.01403884
  0
LWPOLYLINE
  5
12F
330
1F
100
AcDbEntity
  8
0
  6
Continuous
 62
     7
100
AcDbPolyline
 90
        3
 70
   128
 43
0.0
 10
57.3000609875
 20
-24.01403884
 10
57.3145180352
 20
-23.9043959808
 10
57.32585944
 20
-23.81824802
  0
LWPOLYLINE
  5
130
330
1F
100
AcDbEntity
  8
0
  6
Continuous
 62
     7
100
AcDbPolyline
 90
        3
 70
   128
 43
0.0
 10
57.3258399963
 20
-23.81824802
 10
57.3681801072
 20
-23.7160784504
 10
57.40143206
 20
-23.63580236
  0
LWPOLYLINE
  5
131
330
1F
100
AcDbEntity
  8
0
  6
Continuous
 62
     7
100
AcDbPolyline
 90
        3
 70
   128
 43
0.0
 10
57.4014186859
 20
-23.63580236
 10
58.3845678302
 20
-21.9402043907
 10
59.15703688
 20
-20.6079471
  0
LWPOLYLINE
  5
132
330
1F
100
AcDbEntity
  8
0
  6
Continuous
 62
     7
100
AcDbPolyline
 90
        3
 70
   128
 43
0.0
 10
59.1570138931
 20
-20.6079471
 10
59.1538990656
 20
-20.6061349624
 10
59.15143364
 20
-20.60471114
  0
LWPOLYLINE
  5
133
330
1F
100
AcDbEntity
  8
0
  6
Continuous
 62
     7
100
AcDbPolyline
 90
        3
 70
   128
 43
0.0
 10
59.1514110565
 20
-20.60471114
 10
59.218755832
 20
-20.5169760856
 10
59.27165184
 20
-20.4480414
  0
LWPOLYLINE
  5
134
330
1F
100
AcDbEntity
  8
0
  6
Continuous
 62
     7
100
AcDbPolyline
 90
        3
 70
   128
 43
0.0
 10
59.271633625
 20
-20.4480414
 10
59.3593868944
 20
-20.380719208
 10
59.42832158
 20
-20.3278232
  0
LWPOLYLINE
  5
135
330
1F
100
AcDbEntity
  8
0
  6
Continuous
 62
     7
100
AcDbPolyline
 90
        3
 70
   128
 43
0.0
 10
59.4283044338
 20
-20.3278232
 10
59.5304911496
 20
-20.2855025328
 10
59.61076724
 20
-20.25225058
  0
LWPOLYLINE
  5
136
330
1F
100
AcDbEntity
  8
0
  6
Continuous
 62
     7
100
AcDbPolyline
 90
        3
 70
   128
 43
0.0
 10
59.6107542515
 20
-20.25225058
 10
59.7204100992
 20
-20.2378160648
 10
59.80655806
 20
-20.22647466
  0
LWPOLYLINE
  5
137
330
1F
100
AcDbEntity
  8
0
  6
Continuous
 62
     7
100
AcDbPolyline
 90
        3
 70
   128
 43
0.0
 10
59.8065555096
 20
-20.22647466
 10
59.9162009192
 20
-20.2409091752
 10
60.00234888
 20
-20.25225058
  0
LWPOLYLINE
  5
138
330
1F
100
AcDbEntity
  8
0
  6
Continuous
 62
     7
100
AcDbPolyline
 90
        3
 70
   128
 43
0.0
 10
60.0023269653
 20
-20.25225058
 10
60.1045184496
 20
-20.2945712472
 10
60.18479454
 20
-20.3278232
  0
LWPOLYLINE
  5
139
330
1F
100
AcDbEntity
  8
0
  6
Continuous
 62
     7
100
AcDbPolyline
 90
        3
 70
   128
 43
0.0
 10
60.184776783
 20
-20.3278232
 10
60.2071945384
 20
-20.345026823
 10
60.2246446
 20
-20.3587985
  0
LWPOLYLINE
  5
13A
330
1F
100
AcDbEntity
  8
0
  6
Continuous
 62
     7
100
AcDbPolyline
 90
        3
 70
   128
 43
0.0
 10
60.224622488
 20
-20.3587985
 10
60.2370635744
 20
-20.367098204
 10
60.24682134
 20
-20.3736194
  0
LWPOLYLINE
  5
13B
330
1F
100
AcDbEntity
  8
0
  6
Continuous
 62
     7
100
AcDbPolyline
 90
        3
 70
   128
 43
0.0
 10
60.2467954159
 20
-20.3736194
 10
60.2905217352
 20
-20.3823116864
 10
60.32485776
 20
-20.38914134
  0
LWPOLYLINE
  5
13C
330
1F
100
AcDbEntity
  8
0
  6
Continuous
 62
     7
100
AcDbPolyline
 90
        3
 70
   128
 43
0.0
 10
60.3248476982
 20
-20.38914134
 10
60.3685581552
 20
-20.3804490536
 10
60.40289418
 20
-20.3736194
  0
LWPOLYLINE
  5
13D
330
1F
100
AcDbEntity
  8
0
  6
Continuous
 62
     7
100
AcDbPolyline
 90
        3
 70
   128
 43
0.0
 10
60.4028701782
 20
-20.3736194
 10
60.4399420104
 20
-20.3488653728
 10
60.46905102
 20
-20.32941578
  0
LWPOLYLINE
  5
13E
330
1F
100
AcDbEntity
  8
0
  6
Continuous
 62
     7
100
AcDbPolyline
 90
        3
 70
   128
 43
0.0
 10
60.4690313339
 20
-20.32941578
 10
60.4854397717
 20
-20.3047504309
 10
60.49806036
 20
-20.28522232
  0
LWPOLYLINE
  5
13F
330
1F
100
AcDbEntity
  8
0
  6
Continuous
 62
     7
100
AcDbPolyline
 90
        3
 70
   128
 43
0.0
 10
60.4980587959
 20
-20.28522232
 10
64.6331450032
 20
-13.123054272
 10
67.88214008
 20
-7.49563652
  0
LWPOLYLINE
  5
140
330
1F
100
AcDbEntity
  8
0
  6
Continuous
 62
     7
100
AcDbPolyline
 90
        3
 70
   128
 43
0.0
 10
67.8821206093
 20
-7.49563652
 10
67.8821387418
 20
-4.8100784672
 10
67.88213246
 20
-2.69999714
  0
LINE
  5
141
330
1F
100
AcDbEntity
  8
0
  6
Continuous
 62
     7
100
AcDbLine
 10
67.8821206093
 20
-2.69999714
 30
0.0
 11
67.88605168
 21
-2.69999714
 31
0.0
  0
LWPOLYLINE
  5
142
330
1F
100
AcDbEntity
  8
0
  6
Continuous
 62
     7
100
AcDbPolyline
 90
        3
 70
   128
 43
0.0
 10
67.8859949112
 20
-2.69999714
 10
67.8773593936
 20
-2.6562967448
 10
67.87052974
 20
-2.62196072
  0
LWPOLYLINE
  5
143
330
1F
100
AcDbEntity
  8
0
  6
Continuous
 62
     7
100
AcDbPolyline
 90
        3
 70
   128
 43
0.0
 10
67.8704977036
 20
-2.62196072
 10
67.8457757128
 20
-2.5849128896
 10
67.82632612
 20
-2.55580388
  0
LWPOLYLINE
  5
144
330
1F
100
AcDbEntity
  8
0
  6
Continuous
 62
     7
100
AcDbPolyline
 90
        3
 70
   128
 43
0.0
 10
67.8262710571
 20
-2.55580388
 10
67.7892782896
 20
-2.5310498528
 10
67.76016928
 20
-2.51160026
  0
LWPOLYLINE
  5
145
330
1F
100
AcDbEntity
  8
0
  6
Continuous
 62
     7
100
AcDbPolyline
 90
        3
 70
   128
 43
0.0
 10
67.7601099014
 20
-2.51160026
 10
67.7164688848
 20
-2.5029079736
 10
67.68213286
 20
-2.49607832
  0
LWPOLYLINE
  5
146
330
1F
100
AcDbEntity
  8
0
  6
Continuous
 62
     7
100
AcDbPolyline
 90
        3
 70
   128
 43
0.0
 10
67.6820874214
 20
-2.49607832
 10
67.654132916
 20
-2.4982730832
 10
67.63213296
 20
-2.49999754
  0
LWPOLYLINE
  5
147
330
1F
100
AcDbEntity
  8
0
  6
Continuous
 62
     7
100
AcDbPolyline
 90
        3
 70
   128
 43
0.0
 10
67.6320791245
 20
-2.49999754
 10
67.63213296
 20
-2.5036218152
 10
67.63213296
 20
-2.50646946
  0
LWPOLYLINE
  5
148
330
1F
100
AcDbEntity
  8
0
  6
Continuous
 62
     7
100
AcDbPolyline
 90
        3
 70
   128
 43
0.0
 10
67.6320791245
 20
-2.50646946
 10
67.5224901008
 20
-2.4920349448
 10
67.43634214
 20
-2.48069354
  0
LWPOLYLINE
  5
149
330
1F
100
AcDbEntity
  8
0
  6
Continuous
 62
     7
100
AcDbPolyline
 90
        3
 70
   128
 43
0.0
 10
67.436337471
 20
-2.48069354
 10
67.3341725704
 20
-2.4383728728
 10
67.25389648
 20
-2.40512092
  0
LWPOLYLINE
  5
14A
330
1F
100
AcDbEntity
  8
0
  6
Continuous
 62
     7
100
AcDbPolyline
 90
        3
 70
   128
 43
0.0
 10
67.2538876534
 20
-2.40512092
 10
67.1661614256
 20
-2.337798728
 10
67.09722674
 20
-2.28490272
  0
LWPOLYLINE
  5
14B
330
1F
100
AcDbEntity
  8
0
  6
Continuous
 62
     7
100
AcDbPolyline
 90
        3
 70
   128
 43
0.0
 10
67.0971870422
 20
-2.28490272
 10
67.029904548
 20
-2.1971676656
 10
66.97700854
 20
-2.12823298
  0
LWPOLYLINE
  5
14C
330
1F
100
AcDbEntity
  8
0
  6
Continuous
 62
     7
100
AcDbPolyline
 90
        3
 70
   128
 43
0.0
 10
66.9769644737
 20
-2.12823298
 10
66.9346878728
 20
-2.0260634104
 10
66.90143592
 20
-1.94578732
  0
LWPOLYLINE
  5
14D
330
1F
100
AcDbEntity
  8
0
  6
Continuous
 62
     7
100
AcDbPolyline
 90
        3
 70
   128
 43
0.0
 10
66.9013857841
 20
-1.94578732
 10
66.8870014048
 20
-1.8361444608
 10
66.87566
 20
-1.7499965
  0
LINE
  5
14E
330
1F
100
AcDbEntity
  8
0
  6
Continuous
 62
     7
100
AcDbLine
 10
66.8756365776
 20
-1.7499965
 30
0.0
 11
66.882137
 21
-1.74999904
 31
0.0
  0
LWPOLYLINE
  5
14F
330
1F
100
AcDbEntity
  8
0
  6
Continuous
 62
     7
100
AcDbPolyline
 90
        3
 70
   128
 43
0.0
 10
66.8821334839
 20
-1.74999904
 10
66.8821361079
 20
0.2100027296
 10
66.88213192
 20
1.75000412
  0
LINE
  5
150
330
1F
100
AcDbEntity
  8
0
  6
Continuous
 62
     7
100
AcDbLine
 10
66.8820738792
 20
1.75000412
 30
0.0
 11
66.87566
 21
1.75000412
 31
0.0
  0
LWPOLYLINE
  5
151
330
1F
100
AcDbEntity
  8
0
  6
Continuous
 62
     7
100
AcDbPolyline
 90
        3
 70
   128
 43
0.0
 10
66.8756365776
 20
1.75000412
 10
66.8900945152
 20
1.8596469792
 10
66.90143592
 20
1.94579494
  0
LWPOLYLINE
  5
152
330
1F
100
AcDbEntity
  8
0
  6
Continuous
 62
     7
100
AcDbPolyline
 90
        3
 70
   128
 43
0.0
 10
66.9013857841
 20
1.94579494
 10
66.9437565872
 20
2.0479645096
 10
66.97700854
 20
2.1282406
  0
LWPOLYLINE
  5
153
330
1F
100
AcDbEntity
  8
0
  6
Continuous
 62
     7
100
AcDbPolyline
 90
        3
 70
   128
 43
0.0
 10
66.9769644737
 20
2.1282406
 10
67.044330732
 20
2.2159756544
 10
67.09722674
 20
2.28491034
  0
LWPOLYLINE
  5
154
330
1F
100
AcDbEntity
  8
0
  6
Continuous
 62
     7
100
AcDbPolyline
 90
        3
 70
   128
 43
0.0
 10
67.0971870422
 20
2.28491034
 10
67.1849617944
 20
2.352232532
 10
67.25389648
 20
2.40512854
  0
LWPOLYLINE
  5
155
330
1F
100
AcDbEntity
  8
0
  6
Continuous
 62
     7
100
AcDbPolyline
 90
        3
 70
   128
 43
0.0
 10
67.2538876534
 20
2.40512854
 10
67.3560660496
 20
2.4474492072
 10
67.43634214
 20
2.48070116
  0
LWPOLYLINE
  5
156
330
1F
100
AcDbEntity
  8
0
  6
Continuous
 62
     7
100
AcDbPolyline
 90
        3
 70
   128
 43
0.0
 10
67.436337471
 20
2.48070116
 10
67.5459849992
 20
2.4951356752
 10
67.63213296
 20
2.50647708
  0
LWPOLYLINE
  5
157
330
1F
100
AcDbEntity
  8
0
  6
Continuous
 62
     7
100
AcDbPolyline
 90
        3
 70
   128
 43
0.0
 10
67.6320791245
 20
2.50647708
 10
67.660132904
 20
2.5028528048
 10
67.68213286
 20
2.50000516
  0
LWPOLYLINE
  5
158
330
1F
100
AcDbEntity
  8
0
  6
Continuous
 62
     7
100
AcDbPolyline
 90
        3
 70
   128
 43
0.0
 10
67.6820874214
 20
2.50000516
 10
67.68213286
 20
2.4978103968
 10
67.68213286
 20
2.49608594
  0
LWPOLYLINE
  5
159
330
1F
100
AcDbEntity
  8
0
  6
Continuous
 62
     7
100
AcDbPolyline
 90
        3
 70
   128
 43
0.0
 10
67.6820874214
 20
2.49608594
 10
67.7258332552
 20
2.5047782264
 10
67.76016928
 20
2.51160788
  0
LWPOLYLINE
  5
15A
330
1F
100
AcDbEntity
  8
0
  6
Continuous
 62
     7
100
AcDbPolyline
 90
        3
 70
   128
 43
0.0
 10
67.7601099014
 20
2.51160788
 10
67.7972171104
 20
2.5363619072
 10
67.82632612
 20
2.5558115
  0
LWPOLYLINE
  5
15B
330
1F
100
AcDbEntity
  8
0
  6
Continuous
 62
     7
100
AcDbPolyline
 90
        3
 70
   128
 43
0.0
 10
67.8262710571
 20
2.5558115
 10
67.8510801472
 20
2.5928593304
 10
67.87052974
 20
2.62196834
  0
LWPOLYLINE
  5
15C
330
1F
100
AcDbEntity
  8
0
  6
Continuous
 62
     7
100
AcDbPolyline
 90
        3
 70
   128
 43
0.0
 10
67.8704977036
 20
2.62196834
 10
67.8792220264
 20
2.6656687352
 10
67.88605168
 20
2.70000476
  0
LINE
  5
15D
330
1F
100
AcDbEntity
  8
0
  6
Continuous
 62
     7
100
AcDbLine
 10
67.8859949112
 20
2.70000476
 30
0.0
 11
67.88214008
 21
2.70000476
 31
0.0
  0
LWPOLYLINE
  5
15E
330
1F
100
AcDbEntity
  8
0
  6
Continuous
 62
     7
100
AcDbPolyline
 90
        3
 70
   128
 43
0.0
 10
67.8821206093
 20
2.70000476
 10
67.88214008
 20
5.38282896
 10
67.88214008
 20
7.49076226
  0
LWPOLYLINE
  5
15F
330
1F
100
AcDbEntity
  8
0
  6
Continuous
 62
     7
100
AcDbPolyline
 90
        3
 70
   128
 43
0.0
 10
67.8821206093
 20
7.49076226
 10
63.7473717968
 20
14.6525315467
 10
60.49888332
 20
20.27978418
  0
LWPOLYLINE
  5
160
330
1F
100
AcDbEntity
  8
0
  6
Continuous
 62
     7
100
AcDbPolyline
 90
        3
 70
   128
 43
0.0
 10
60.4988634586
 20
20.27978418
 10
60.4824289968
 20
20.3044116136
 10
60.4695006
 20
20.32376174
  0
LWPOLYLINE
  5
161
330
1F
100
AcDbEntity
  8
0
  6
Continuous
 62
     7
100
AcDbPolyline
 90
        3
 70
   128
 43
0.0
 10
60.4694783688
 20
20.32376174
 10
60.4324527696
 20
20.3485157672
 10
60.40334376
 20
20.36796536
  0
LWPOLYLINE
  5
162
330
1F
100
AcDbEntity
  8
0
  6
Continuous
 62
     7
100
AcDbPolyline
 90
        3
 70
   128
 43
0.0
 10
60.4033172131
 20
20.36796536
 10
60.3596433648
 20
20.3766576464
 10
60.32530734
 20
20.3834873
  0
LWPOLYLINE
  5
163
330
1F
100
AcDbEntity
  8
0
  6
Continuous
 62
     7
100
AcDbPolyline
 90
        3
 70
   128
 43
0.0
 10
60.325294733
 20
20.3834873
 10
60.2816069448
 20
20.3747950136
 10
60.24727092
 20
20.36796536
  0
LWPOLYLINE
  5
164
330
1F
100
AcDbEntity
  8
0
  6
Continuous
 62
     7
100
AcDbPolyline
 90
        3
 70
   128
 43
0.0
 10
60.2472424507
 20
20.36796536
 10
60.2348898611
 20
20.3596005306
 10
60.22531008
 20
20.35277362
  0
LWPOLYLINE
  5
165
330
1F
100
AcDbEntity
  8
0
  6
Continuous
 62
     7
100
AcDbPolyline
 90
        3
 70
   128
 43
0.0
 10
60.2253079414
 20
20.35277362
 10
60.2022444416
 20
20.3394566651
 10
60.18412144
 20
20.3289916
  0
LWPOLYLINE
  5
166
330
1F
100
AcDbEntity
  8
0
  6
Continuous
 62
     7
100
AcDbPolyline
 90
        3
 70
   128
 43
0.0
 10
60.1841211319
 20
20.3289916
 10
60.1859335776
 20
20.3258537856
 10
60.1873574
 20
20.32338836
  0
LWPOLYLINE
  5
167
330
1F
100
AcDbEntity
  8
0
  6
Continuous
 62
     7
100
AcDbPolyline
 90
        3
 70
   128
 43
0.0
 10
60.1873397827
 20
20.32338836
 10
60.0851878304
 20
20.2810676928
 10
60.00491174
 20
20.24781574
  0
LWPOLYLINE
  5
168
330
1F
100
AcDbEntity
  8
0
  6
Continuous
 62
     7
100
AcDbPolyline
 90
        3
 70
   128
 43
0.0
 10
60.0048899651
 20
20.24781574
 10
59.8952688808
 20
20.2333812248
 10
59.80912092
 20
20.22203982
  0
LWPOLYLINE
  5
169
330
1F
100
AcDbEntity
  8
0
  6
Continuous
 62
     7
100
AcDbPolyline
 90
        3
 70
   128
 43
0.0
 10
59.8091185093
 20
20.22203982
 10
59.6994780608
 20
20.2364743352
 10
59.6133301
 20
20.24781574
  0
LWPOLYLINE
  5
16A
330
1F
100
AcDbEntity
  8
0
  6
Continuous
 62
     7
100
AcDbPolyline
 90
        3
 70
   128
 43
0.0
 10
59.6133172512
 20
20.24781574
 10
59.5111605304
 20
20.2901364072
 10
59.43088444
 20
20.32338836
  0
LWPOLYLINE
  5
16B
330
1F
100
AcDbEntity
  8
0
  6
Continuous
 62
     7
100
AcDbPolyline
 90
        3
 70
   128
 43
0.0
 10
59.4308674335
 20
20.32338836
 10
59.3431493856
 20
20.390710552
 10
59.2742147
 20
20.44360656
  0
LWPOLYLINE
  5
16C
330
1F
100
AcDbEntity
  8
0
  6
Continuous
 62
     7
100
AcDbPolyline
 90
        3
 70
   128
 43
0.0
 10
59.2741966248
 20
20.44360656
 10
59.206892508
 20
20.5313416144
 10
59.1539965
 20
20.6002763
  0
LWPOLYLINE
  5
16D
330
1F
100
AcDbEntity
  8
0
  6
Continuous
 62
     7
100
AcDbPolyline
 90
        3
 70
   128
 43
0.0
 10
59.1539740562
 20
20.6002763
 10
59.1571385816
 20
20.60208986
 10
59.15960736
 20
20.6035148
  0
LWPOLYLINE
  5
16E
330
1F
100
AcDbEntity
  8
0
  6
Continuous
 62
     7
100
AcDbPolyline
 90
        3
 70
   128
 43
0.0
 10
59.1596066952
 20
20.6035148
 10
58.179602208
 20
22.3009244608
 10
57.40959816
 20
23.63460348
  0
LWPOLYLINE
  5
16F
330
1F
100
AcDbEntity
  8
0
  6
Continuous
 62
     7
100
AcDbPolyline
 90
        3
 70
   128
 43
0.0
 10
57.4095845222
 20
23.63460348
 10
57.4064603456
 20
23.6327913424
 10
57.40399492
 20
23.63136752
  0
LWPOLYLINE
  5
170
330
1F
100
AcDbEntity
  8
0
  6
Continuous
 62
     7
100
AcDbPolyline
 90
        3
 70
   128
 43
0.0
 10
57.4039816856
 20
23.63136752
 10
57.3616742528
 20
23.7335370896
 10
57.3284223
 20
23.81381318
  0
LWPOLYLINE
  5
171
330
1F
100
AcDbEntity
  8
0
  6
Continuous
 62
     7
100
AcDbPolyline
 90
        3
 70
   128
 43
0.0
 10
57.3284029961
 20
23.81381318
 10
57.3139877848
 20
23.9234560392
 10
57.30264638
 20
24.009604
  0
LWPOLYLINE
  5
172
330
1F
100
AcDbEntity
  8
0
  6
Continuous
 62
     7
100
AcDbPolyline
 90
        3
 70
   128
 43
0.0
 10
57.3026239872
 20
24.009604
 10
57.3170808952
 20
24.1192468592
 10
57.3284223
 20
24.20539482
  0
LWPOLYLINE
  5
173
330
1F
100
AcDbEntity
  8
0
  6
Continuous
 62
     7
100
AcDbPolyline
 90
        3
 70
   128
 43
0.0
 10
57.3284029961
 20
24.20539482
 10
57.3707429672
 20
24.3075643896
 10
57.40399492
 20
24.38784048
  0
LWPOLYLINE
  5
174
330
1F
100
AcDbEntity
  8
0
  6
Continuous
 62
     7
100
AcDbPolyline
 90
        3
 70
   128
 43
0.0
 10
57.4039816856
 20
24.38784048
 10
57.471317112
 20
24.4755755344
 10
57.52421312
 20
24.54451022
  0
LWPOLYLINE
  5
175
330
1F
100
AcDbEntity
  8
0
  6
Continuous
 62
     7
100
AcDbPolyline
 90
        3
 70
   128
 43
0.0
 10
57.5242042542
 20
24.54451022
 10
57.6119481744
 20
24.611832412
 10
57.68088286
 20
24.66472842
  0
LWPOLYLINE
  5
176
330
1F
100
AcDbEntity
  8
0
  6
Continuous
 62
     7
100
AcDbPolyline
 90
        3
 70
   128
 43
0.0
 10
57.6808750629
 20
24.66472842
 10
57.6826978424
 20
24.6615906056
 10
57.6841239
 20
24.65912518
  0
LWPOLYLINE
  5
177
330
1F
100
AcDbEntity
  8
0
  6
Continuous
 62
     7
100
AcDbPolyline
 90
        3
 70
   128
 43
0.0
 10
57.6841235161
 20
24.65912518
 10
57.7072246933
 20
24.6723765634
 10
57.72551828
 20
24.68253382
  0
LWPOLYLINE
  5
178
330
1F
100
AcDbEntity
  8
0
  6
Continuous
 62
     7
100
AcDbPolyline
 90
        3
 70
   128
 43
0.0
 10
57.7254891396
 20
24.68253382
 10
57.750147136
 20
24.6989881432
 10
57.76949838
 20
24.71191654
  0
LWPOLYLINE
  5
179
330
1F
100
AcDbEntity
  8
0
  6
Continuous
 62
     7
100
AcDbPolyline
 90
        3
 70
   128
 43
0.0
 10
57.7694773674
 20
24.71191654
 10
57.7942524072
 20
24.7489643704
 10
57.813702
 20
24.77807338
  0
LWPOLYLINE
  5
17A
330
1F
100
AcDbEntity
  8
0
  6
Continuous
 62
     7
100
AcDbPolyline
 90
        3
 70
   128
 43
0.0
 10
57.8136742115
 20
24.77807338
 10
57.8223942864
 20
24.8217737752
 10
57.82922394
 20
24.8561098
  0
LWPOLYLINE
  5
17B
330
1F
100
AcDbEntity
  8
0
  6
Continuous
 62
     7
100
AcDbPolyline
 90
        3
 70
   128
 43
0.0
 10
57.8292012215
 20
24.8561098
 10
57.8205316536
 20
24.8998101952
 10
57.813702
 20
24.93414622
  0
LWPOLYLINE
  5
17C
330
1F
100
AcDbEntity
  8
0
  6
Continuous
 62
     7
100
AcDbPolyline
 90
        3
 70
   128
 43
0.0
 10
57.8136742115
 20
24.93414622
 10
57.8053362784
 20
24.9465287013
 10
57.79850518
 20
24.9561096
  0
LWPOLYLINE
  5
17D
330
1F
100
AcDbEntity
  8
0
  6
Continuous
 62
     7
100
AcDbPolyline
 90
        3
 70
   128
 43
0.0
 10
57.7985048294
 20
24.9561096
 10
53.719495507
 20
32.021320239
 10
50.51481388
 20
37.57270362
  0
LWPOLYLINE
  5
17E
330
1F
100
AcDbEntity
  8
0
  6
Continuous
 62
     7
100
AcDbPolyline
 90
        3
 70
   128
 43
0.0
 10
50.5147874355
 20
37.57270362
 10
50.4983595568
 20
37.597332476
 10
50.48543116
 20
37.61668372
  0
LWPOLYLINE
  5
17F
330
1F
100
AcDbEntity
  8
0
  6
Continuous
 62
     7
100
AcDbPolyline
 90
        3
 70
   128
 43
0.0
 10
50.4854023457
 20
37.61668372
 10
50.4483833296
 20
37.6414377472
 10
50.41927432
 20
37.66088734
  0
LWPOLYLINE
  5
180
330
1F
100
AcDbEntity
  8
0
  6
Continuous
 62
     7
100
AcDbPolyline
 90
        3
 70
   128
 43
0.0
 10
50.4192709923
 20
37.66088734
 10
50.3755739248
 20
37.6695796264
 10
50.3412379
 20
37.67640928
  0
LWPOLYLINE
  5
181
330
1F
100
AcDbEntity
  8
0
  6
Continuous
 62
     7
100
AcDbPolyline
 90
        3
 70
   128
 43
0.0
 10
50.3412187099
 20
37.67640928
 10
50.2975375048
 20
37.6677169936
 10
50.26320148
 20
37.66088734
  0
LWPOLYLINE
  5
182
330
1F
100
AcDbEntity
  8
0
  6
Continuous
 62
     7
100
AcDbPolyline
 90
        3
 70
   128
 43
0.0
 10
50.2631962299
 20
37.66088734
 10
50.2508172144
 20
37.6525225106
 10
50.24122794
 20
37.6456956
  0
LWPOLYLINE
  5
183
330
1F
100
AcDbEntity
  8
0
  6
Continuous
 62
     7
100
AcDbPolyline
 90
        3
 70
   128
 43
0.0
 10
50.241202116
 20
37.6456956
 10
50.2181646161
 20
37.6323786451
 10
50.20004692
 20
37.62191358
  0
LWPOLYLINE
  5
184
330
1F
100
AcDbEntity
  8
0
  6
Continuous
 62
     7
100
AcDbPolyline
 90
        3
 70
   128
 43
0.0
 10
50.2000451088
 20
37.62191358
 10
50.2018590576
 20
37.6187757656
 10
50.20328288
 20
37.61631034
  0
LWPOLYLINE
  5
185
330
1F
100
AcDbEntity
  8
0
  6
Continuous
 62
     7
100
AcDbPolyline
 90
        3
 70
   128
 43
0.0
 10
50.2032637596
 20
37.61631034
 10
50.1011133104
 20
37.5739896728
 10
50.02083722
 20
37.54073772
  0
LWPOLYLINE
  5
186
330
1F
100
AcDbEntity
  8
0
  6
Continuous
 62
     7
100
AcDbPolyline
 90
        3
 70
   128
 43
0.0
 10
50.020813942
 20
37.54073772
 10
49.9111943608
 20
37.5263032048
 10
49.8250464
 20
37.5149618
  0
LWPOLYLINE
  5
187
330
1F
100
AcDbEntity
  8
0
  6
Continuous
 62
     7
100
AcDbPolyline
 90
        3
 70
   128
 43
0.0
 10
49.8250424862
 20
37.5149618
 10
49.7154035408
 20
37.5293963152
 10
49.62925558
 20
37.54073772
  0
LWPOLYLINE
  5
188
330
1F
100
AcDbEntity
  8
0
  6
Continuous
 62
     7
100
AcDbPolyline
 90
        3
 70
   128
 43
0.0
 10
49.6292412281
 20
37.54073772
 10
49.5270860104
 20
37.5830583872
 10
49.44680992
 20
37.61631034
  0
LWPOLYLINE
  5
189
330
1F
100
AcDbEntity
  8
0
  6
Continuous
 62
     7
100
AcDbPolyline
 90
        3
 70
   128
 43
0.0
 10
49.4467914104
 20
37.61631034
 10
49.3590748656
 20
37.683632532
 10
49.29014018
 20
37.73652854
  0
LWPOLYLINE
  5
18A
330
1F
100
AcDbEntity
  8
0
  6
Continuous
 62
     7
100
AcDbPolyline
 90
        3
 70
   128
 43
0.0
 10
49.2901206017
 20
37.73652854
 10
49.222817988
 20
37.8242635944
 10
49.16992198
 20
37.89319828
  0
LWPOLYLINE
  5
18B
330
1F
100
AcDbEntity
  8
0
  6
Continuous
 62
     7
100
AcDbPolyline
 90
        3
 70
   128
 43
0.0
 10
49.1698980331
 20
37.89319828
 10
49.1730597944
 20
37.89501184
 10
49.17552522
 20
37.89643678
  0
LWPOLYLINE
  5
18C
330
1F
100
AcDbEntity
  8
0
  6
Continuous
 62
     7
100
AcDbPolyline
 90
        3
 70
   128
 43
0.0
 10
49.1755008698
 20
37.89643678
 10
48.1955243352
 20
39.5938464408
 10
47.42552364
 20
40.92752546
  0
LWPOLYLINE
  5
18D
330
1F
100
AcDbEntity
  8
0
  6
Continuous
 62
     7
100
AcDbPolyline
 90
        3
 70
   128
 43
0.0
 10
47.4255084991
 20
40.92752546
 10
47.4223858256
 20
40.9257133224
 10
47.4199204
 20
40.9242895
  0
LWPOLYLINE
  5
18E
330
1F
100
AcDbEntity
  8
0
  6
Continuous
 62
     7
100
AcDbPolyline
 90
        3
 70
   128
 43
0.0
 10
47.4199056625
 20
40.9242895
 10
47.3775997328
 20
41.0264590696
 10
47.34434778
 20
41.10673516
  0
LWPOLYLINE
  5
18F
330
1F
100
AcDbEntity
  8
0
  6
Continuous
 62
     7
100
AcDbPolyline
 90
        3
 70
   128
 43
0.0
 10
47.344326973
 20
41.10673516
 10
47.3299132648
 20
41.2163780192
 10
47.31857186
 20
41.30252598
  0
LWPOLYLINE
  5
190
330
1F
100
AcDbEntity
  8
0
  6
Continuous
 62
     7
100
AcDbPolyline
 90
        3
 70
   128
 43
0.0
 10
47.3185479641
 20
41.30252598
 10
47.3330063752
 20
41.4121688392
 10
47.34434778
 20
41.4983168
  0
LWPOLYLINE
  5
191
330
1F
100
AcDbEntity
  8
0
  6
Continuous
 62
     7
100
AcDbPolyline
 90
        3
 70
   128
 43
0.0
 10
47.344326973
 20
41.4983168
 10
47.3866684472
 20
41.6004863696
 10
47.4199204
 20
41.68076246
  0
LWPOLYLINE
  5
192
330
1F
100
AcDbEntity
  8
0
  6
Continuous
 62
     7
100
AcDbPolyline
 90
        3
 70
   128
 43
0.0
 10
47.4199056625
 20
41.68076246
 10
47.487242592
 20
41.7684975144
 10
47.5401386
 20
41.8374322
  0
LWPOLYLINE
  5
193
330
1F
100
AcDbEntity
  8
0
  6
Continuous
 62
     7
100
AcDbPolyline
 90
        3
 70
   128
 43
0.0
 10
47.540128231
 20
41.8374322
 10
47.6278736544
 20
41.904754392
 10
47.69680834
 20
41.9576504
  0
LWPOLYLINE
  5
194
330
1F
100
AcDbEntity
  8
0
  6
Continuous
 62
     7
100
AcDbPolyline
 90
        3
 70
   128
 43
0.0
 10
47.6967990398
 20
41.9576504
 10
47.6986233224
 20
41.9545111632
 10
47.70004938
 20
41.95204462
  0
LWPOLYLINE
  5
195
330
1F
100
AcDbEntity
  8
0
  6
Continuous
 62
     7
100
AcDbPolyline
 90
        3
 70
   128
 43
0.0
 10
47.700047493
 20
41.95204462
 10
47.7231510654
 20
41.9652960034
 10
47.74144884
 20
41.97545326
  0
LWPOLYLINE
  5
196
330
1F
100
AcDbEntity
  8
0
  6
Continuous
 62
     7
100
AcDbPolyline
 90
        3
 70
   128
 43
0.0
 10
47.7414429188
 20
41.97545326
 10
47.7660762736
 20
41.9919075832
 10
47.7854264
 20
42.00483598
  0
LWPOLYLINE
  5
197
330
1F
100
AcDbEntity
  8
0
  6
Continuous
 62
     7
100
AcDbPolyline
 90
        3
 70
   128
 43
0.0
 10
47.7854013443
 20
42.00483598
 10
47.8101804272
 20
42.0418838104
 10
47.82963002
 20
42.07099282
  0
LWPOLYLINE
  5
198
330
1F
100
AcDbEntity
  8
0
  6
Continuous
 62
     7
100
AcDbPolyline
 90
        3
 70
   128
 43
0.0
 10
47.8296279907
 20
42.07099282
 10
47.8383223064
 20
42.1146932152
 10
47.84515196
 20
42.14902924
  0
LWPOLYLINE
  5
199
330
1F
100
AcDbEntity
  8
0
  6
Continuous
 62
     7
100
AcDbPolyline
 90
        3
 70
   128
 43
0.0
 10
47.8451251984
 20
42.14902924
 10
47.8364596736
 20
42.1927296352
 10
47.82963002
 20
42.22706566
  0
LWPOLYLINE
  5
19A
330
1F
100
AcDbEntity
  8
0
  6
Continuous
 62
     7
100
AcDbPolyline
 90
        3
 70
   128
 43
0.0
 10
47.8296279907
 20
42.22706566
 10
47.8212651906
 20
42.2394485874
 10
47.81443828
 20
42.24903158
  0
LWPOLYLINE
  5
19B
330
1F
100
AcDbEntity
  8
0
  6
Continuous
 62
     7
100
AcDbPolyline
 90
        3
 70
   128
 43
0.0
 10
47.8144288063
 20
42.24903158
 10
43.6791047168
 20
49.4116363048
 10
40.42991406
 20
55.03939716
  0
LWPOLYLINE
  5
19C
330
1F
100
AcDbEntity
  8
0
  6
Continuous
 62
     7
100
AcDbPolyline
 90
        3
 70
   128
 43
0.0
 10
40.4298901558
 20
55.03939716
 10
38.1051629243
 20
56.3816815974
 10
36.27872094
 20
57.4365882
  0
LWPOLYLINE
  5
19D
330
1F
100
AcDbEntity
  8
0
  6
Continuous
 62
     7
100
AcDbPolyline
 90
        3
 70
   128
 43
0.0
 10
36.2786948681
 20
57.4365882
 10
36.2663019656
 20
57.444887904
 10
36.2565442
 20
57.4514091
  0
LWPOLYLINE
  5
19E
330
1F
100
AcDbEntity
  8
0
  6
Continuous
 62
     7
100
AcDbPolyline
 90
        3
 70
   128
 43
0.0
 10
36.2565219402
 20
57.4514091
 10
36.2128438048
 20
57.4601013864
 10
36.17850778
 20
57.46693104
  0
LWPOLYLINE
  5
19F
330
1F
100
AcDbEntity
  8
0
  6
Continuous
 62
     7
100
AcDbPolyline
 90
        3
 70
   128
 43
0.0
 10
36.1784994602
 20
57.46693104
 10
36.1348073848
 20
57.4582387536
 10
36.10047136
 20
57.4514091
  0
LWPOLYLINE
  5
1A0
330
1F
100
AcDbEntity
  8
0
  6
Continuous
 62
     7
100
AcDbPolyline
 90
        3
 70
   128
 43
0.0
 10
36.1004471779
 20
57.4514091
 10
36.0634235296
 20
57.4266550728
 10
36.03431452
 20
57.40720548
  0
LWPOLYLINE
  5
1A1
330
1F
100
AcDbEntity
  8
0
  6
Continuous
 62
     7
100
AcDbPolyline
 90
        3
 70
   128
 43
0.0
 10
36.0342860222
 20
57.40720548
 10
36.0179244301
 20
57.3825391546
 10
36.00529756
 20
57.36301202
  0
LWPOLYLINE
  5
1A2
330
1F
100
AcDbEntity
  8
0
  6
Continuous
 62
     7
100
AcDbPolyline
 90
        3
 70
   128
 43
0.0
 10
36.0052883625
 20
57.36301202
 10
35.9917638701
 20
57.3395694456
 10
35.981132
 20
57.32115028
  0
LWPOLYLINE
  5
1A3
330
1F
100
AcDbEntity
  8
0
  6
Continuous
 62
     7
100
AcDbPolyline
 90
        3
 70
   128
 43
0.0
 10
35.981118679
 20
57.32115028
 10
35.9842698144
 20
57.3193381424
 10
35.98673524
 20
57.31791432
  0
LWPOLYLINE
  5
1A4
330
1F
100
AcDbEntity
  8
0
  6
Continuous
 62
     7
100
AcDbPolyline
 90
        3
 70
   128
 43
0.0
 10
35.9867215157
 20
57.31791432
 10
35.919413048
 20
57.2301792656
 10
35.86651704
 20
57.16124458
  0
LWPOLYLINE
  5
1A5
330
1F
100
AcDbEntity
  8
0
  6
Continuous
 62
     7
100
AcDbPolyline
 90
        3
 70
   128
 43
0.0
 10
35.8664989471
 20
57.16124458
 10
35.7787819856
 20
57.093922388
 10
35.7098473
 20
57.04102638
  0
LWPOLYLINE
  5
1A6
330
1F
100
AcDbEntity
  8
0
  6
Continuous
 62
     7
100
AcDbPolyline
 90
        3
 70
   128
 43
0.0
 10
35.7098281384
 20
57.04102638
 10
35.6076777304
 20
56.9987057128
 10
35.52740164
 20
56.96545376
  0
LWPOLYLINE
  5
1A7
330
1F
100
AcDbEntity
  8
0
  6
Continuous
 62
     7
100
AcDbPolyline
 90
        3
 70
   128
 43
0.0
 10
35.5273783207
 20
56.96545376
 10
35.4177587808
 20
56.9510192448
 10
35.33161082
 20
56.93967784
  0
LWPOLYLINE
  5
1A8
330
1F
100
AcDbEntity
  8
0
  6
Continuous
 62
     7
100
AcDbPolyline
 90
        3
 70
   128
 43
0.0
 10
35.3316068649
 20
56.93967784
 10
35.2219679608
 20
56.9541123552
 10
35.13582
 20
56.96545376
  0
LWPOLYLINE
  5
1A9
330
1F
100
AcDbEntity
  8
0
  6
Continuous
 62
     7
100
AcDbPolyline
 90
        3
 70
   128
 43
0.0
 10
35.1358056068
 20
56.96545376
 10
35.0336504304
 20
57.0077744272
 10
34.95337434
 20
57.04102638
  0
LWPOLYLINE
  5
1AA
330
1F
100
AcDbEntity
  8
0
  6
Continuous
 62
     7
100
AcDbPolyline
 90
        3
 70
   128
 43
0.0
 10
34.9533557892
 20
57.04102638
 10
34.9551879
 20
57.0441656168
 10
34.95661284
 20
57.04663216
  0
LWPOLYLINE
  5
1AB
330
1F
100
AcDbEntity
  8
0
  6
Continuous
 62
     7
100
AcDbPolyline
 90
        3
 70
   128
 43
0.0
 10
34.9566042423
 20
57.04663216
 10
33.2592013107
 20
58.0266316224
 10
31.92551908
 20
58.7966312
  0
LWPOLYLINE
  5
1AC
330
1F
100
AcDbEntity
  8
0
  6
Continuous
 62
     7
100
AcDbPolyline
 90
        3
 70
   128
 43
0.0
 10
31.9254994392
 20
58.7966312
 10
31.9237069424
 20
58.7934933856
 10
31.92228312
 20
58.79102796
  0
LWPOLYLINE
  5
1AD
330
1F
100
AcDbEntity
  8
0
  6
Continuous
 62
     7
100
AcDbPolyline
 90
        3
 70
   128
 43
0.0
 10
31.9222807884
 20
58.79102796
 10
31.8345480656
 20
58.858350152
 10
31.76561338
 20
58.91124616
  0
LWPOLYLINE
  5
1AE
330
1F
100
AcDbEntity
  8
0
  6
Continuous
 62
     7
100
AcDbPolyline
 90
        3
 70
   128
 43
0.0
 10
31.7656099796
 20
58.91124616
 10
31.698291188
 20
58.9989812144
 10
31.64539518
 20
59.0679159
  0
LWPOLYLINE
  5
1AF
330
1F
100
AcDbEntity
  8
0
  6
Continuous
 62
     7
100
AcDbPolyline
 90
        3
 70
   128
 43
0.0
 10
31.6453874111
 20
59.0679159
 10
31.6030745128
 20
59.1700854696
 10
31.56982256
 20
59.25036156
  0
LWPOLYLINE
  5
1B0
330
1F
100
AcDbEntity
  8
0
  6
Continuous
 62
     7
100
AcDbPolyline
 90
        3
 70
   128
 43
0.0
 10
31.5698087215
 20
59.25036156
 10
31.5553880448
 20
59.3600044192
 10
31.54404664
 20
59.44615238
  0
LWPOLYLINE
  5
1B1
330
1F
100
AcDbEntity
  8
0
  6
Continuous
 62
     7
100
AcDbPolyline
 90
        3
 70
   128
 43
0.0
 10
31.5440297127
 20
59.44615238
 10
31.5584811552
 20
59.5557952392
 10
31.56982256
 20
59.6419432
  0
LWPOLYLINE
  5
1B2
330
1F
100
AcDbEntity
  8
0
  6
Continuous
 62
     7
100
AcDbPolyline
 90
        3
 70
   128
 43
0.0
 10
31.5698087215
 20
59.6419432
 10
31.6121432272
 20
59.7441127696
 10
31.64539518
 20
59.82438886
  0
LWPOLYLINE
  5
1B3
330
1F
100
AcDbEntity
  8
0
  6
Continuous
 62
     7
100
AcDbPolyline
 90
        3
 70
   128
 43
0.0
 10
31.6453874111
 20
59.82438886
 10
31.6621327019
 20
59.8459799589
 10
31.6755399
 20
59.8627962
  0
LWPOLYLINE
  5
1B4
330
1F
100
AcDbEntity
  8
0
  6
Continuous
 62
     7
100
AcDbPolyline
 90
        3
 70
   128
 43
0.0
 10
31.6755175591
 20
59.8627962
 10
31.683839604
 20
59.8752165968
 10
31.6903608
 20
59.88497548
  0
LWPOLYLINE
  5
1B5
330
1F
100
AcDbEntity
  8
0
  6
Continuous
 62
     7
100
AcDbPolyline
 90
        3
 70
   128
 43
0.0
 10
31.6903591156
 20
59.88497548
 10
31.6990530864
 20
59.9286758752
 10
31.70588274
 20
59.9630119
  0
LWPOLYLINE
  5
1B6
330
1F
100
AcDbEntity
  8
0
  6
Continuous
 62
     7
100
AcDbPolyline
 90
        3
 70
   128
 43
0.0
 10
31.7058563232
 20
59.9630119
 10
31.6971904536
 20
60.0067122952
 10
31.6903608
 20
60.04104832
  0
LWPOLYLINE
  5
1B7
330
1F
100
AcDbEntity
  8
0
  6
Continuous
 62
     7
100
AcDbPolyline
 90
        3
 70
   128
 43
0.0
 10
31.6903591156
 20
60.04104832
 10
31.6656067728
 20
60.0780961504
 10
31.64615718
 20
60.10720516
  0
LWPOLYLINE
  5
1B8
330
1F
100
AcDbEntity
  8
0
  6
Continuous
 62
     7
100
AcDbPolyline
 90
        3
 70
   128
 43
0.0
 10
31.6461324692
 20
60.10720516
 10
31.6214913006
 20
60.1235943578
 10
31.60196626
 20
60.13621704
  0
LWPOLYLINE
  5
1B9
330
1F
100
AcDbEntity
  8
0
  6
Continuous
 62
     7
100
AcDbPolyline
 90
        3
 70
   128
 43
0.0
 10
31.6019654274
 20
60.13621704
 10
29.2775996616
 20
61.4781902768
 10
27.45131162
 20
62.53259782
  0
LINE
  5
1BA
330
1F
100
AcDbEntity
  8
0
  6
Continuous
 62
     7
100
AcDbLine
 10
27.4513065815
 20
62.53259782
 30
0.0
 11
-27.45311756
 21
62.53259782
 31
0.0
  0
LWPOLYLINE
  5
1BB
330
1F
100
AcDbEntity
  8
0
  6
Continuous
 62
     7
100
AcDbPolyline
 90
        3
 70
   128
 43
0.0
 10
-27.453109622
 20
62.53259782
 10
-29.776764465
 20
61.1911268315
 10
-31.60263174
 20
60.1373702
  0
LWPOLYLINE
  5
1BC
330
1F
100
AcDbEntity
  8
0
  6
Continuous
 62
     7
100
AcDbPolyline
 90
        3
 70
   128
 43
0.0
 10
-31.6026210785
 20
60.1373702
 10
-31.627260596
 20
60.1209158768
 10
-31.64661184
 20
60.10798748
  0
LWPOLYLINE
  5
1BD
330
1F
100
AcDbEntity
  8
0
  6
Continuous
 62
     7
100
AcDbPolyline
 90
        3
 70
   128
 43
0.0
 10
-31.6466093063
 20
60.10798748
 10
-31.6713658672
 20
60.0709396496
 10
-31.69081546
 20
60.04183064
  0
LWPOLYLINE
  5
1BE
330
1F
100
AcDbEntity
  8
0
  6
Continuous
 62
     7
100
AcDbPolyline
 90
        3
 70
   128
 43
0.0
 10
-31.6908061504
 20
60.04183064
 10
-31.6995077464
 20
59.9981302448
 10
-31.7063374
 20
59.96379422
  0
LWPOLYLINE
  5
1BF
330
1F
100
AcDbEntity
  8
0
  6
Continuous
 62
     7
100
AcDbPolyline
 90
        3
 70
   128
 43
0.0
 10
-31.7063331604
 20
59.96379422
 10
-31.6976451136
 20
59.9200938248
 10
-31.69081546
 20
59.8857578
  0
LWPOLYLINE
  5
1C0
330
1F
100
AcDbEntity
  8
0
  6
Continuous
 62
     7
100
AcDbPolyline
 90
        3
 70
   128
 43
0.0
 10
-31.6908061504
 20
59.8857578
 10
-31.6824501845
 20
59.8733748726
 10
-31.67562118
 20
59.86379188
  0
LWPOLYLINE
  5
1C1
330
1F
100
AcDbEntity
  8
0
  6
Continuous
 62
     7
100
AcDbPolyline
 90
        3
 70
   128
 43
0.0
 10
-31.675606966
 20
59.86379188
 10
-31.6618362555
 20
59.8399140512
 10
-31.6510035
 20
59.8211529
  0
LWPOLYLINE
  5
1C2
330
1F
100
AcDbEntity
  8
0
  6
Continuous
 62
     7
100
AcDbPolyline
 90
        3
 70
   128
 43
0.0
 10
-31.6509902477
 20
59.8211529
 10
-31.6478656856
 20
59.8229650376
 10
-31.64540026
 20
59.82438886
  0
LWPOLYLINE
  5
1C3
330
1F
100
AcDbEntity
  8
0
  6
Continuous
 62
     7
100
AcDbPolyline
 90
        3
 70
   128
 43
0.0
 10
-31.6453874111
 20
59.82438886
 10
-31.6030795928
 20
59.7222192904
 10
-31.56982764
 20
59.6419432
  0
LWPOLYLINE
  5
1C4
330
1F
100
AcDbEntity
  8
0
  6
Continuous
 62
     7
100
AcDbPolyline
 90
        3
 70
   128
 43
0.0
 10
-31.5698087215
 20
59.6419432
 10
-31.5553931248
 20
59.5323003408
 10
-31.54405172
 20
59.44615238
  0
LWPOLYLINE
  5
1C5
330
1F
100
AcDbEntity
  8
0
  6
Continuous
 62
     7
100
AcDbPolyline
 90
        3
 70
   128
 43
0.0
 10
-31.5440297127
 20
59.44615238
 10
-31.5584862352
 20
59.3365095208
 10
-31.56982764
 20
59.25036156
  0
LWPOLYLINE
  5
1C6
330
1F
100
AcDbEntity
  8
0
  6
Continuous
 62
     7
100
AcDbPolyline
 90
        3
 70
   128
 43
0.0
 10
-31.5698087215
 20
59.25036156
 10
-31.6121483072
 20
59.1481919904
 10
-31.64540026
 20
59.0679159
  0
LWPOLYLINE
  5
1C7
330
1F
100
AcDbEntity
  8
0
  6
Continuous
 62
     7
100
AcDbPolyline
 90
        3
 70
   128
 43
0.0
 10
-31.6453874111
 20
59.0679159
 10
-31.712722452
 20
58.9801808456
 10
-31.76561846
 20
58.91124616
  0
LWPOLYLINE
  5
1C8
330
1F
100
AcDbEntity
  8
0
  6
Continuous
 62
     7
100
AcDbPolyline
 90
        3
 70
   128
 43
0.0
 10
-31.7656099796
 20
58.91124616
 10
-31.8533535144
 20
58.843923968
 10
-31.9222882
 20
58.79102796
  0
LWPOLYLINE
  5
1C9
330
1F
100
AcDbEntity
  8
0
  6
Continuous
 62
     7
100
AcDbPolyline
 90
        3
 70
   128
 43
0.0
 10
-31.9222807884
 20
58.79102796
 10
-31.9240989152
 20
58.7941657744
 10
-31.92552162
 20
58.7966312
  0
LWPOLYLINE
  5
1CA
330
1F
100
AcDbEntity
  8
0
  6
Continuous
 62
     7
100
AcDbPolyline
 90
        3
 70
   128
 43
0.0
 10
-31.9254994392
 20
58.7966312
 10
-33.6229331493
 20
57.8166312915
 10
-34.95661538
 20
57.04662962
  0
LWPOLYLINE
  5
1CB
330
1F
100
AcDbEntity
  8
0
  6
Continuous
 62
     7
100
AcDbPolyline
 90
        3
 70
   128
 43
0.0
 10
-34.9566042423
 20
57.04662962
 10
-34.9548032424
 20
57.0434918056
 10
-34.95337942
 20
57.04102638
  0
LWPOLYLINE
  5
1CC
330
1F
100
AcDbEntity
  8
0
  6
Continuous
 62
     7
100
AcDbPolyline
 90
        3
 70
   128
 43
0.0
 10
-34.9533557892
 20
57.04102638
 10
-35.0555489896
 20
56.9987057128
 10
-35.13582508
 20
56.96545376
  0
LWPOLYLINE
  5
1CD
330
1F
100
AcDbEntity
  8
0
  6
Continuous
 62
     7
100
AcDbPolyline
 90
        3
 70
   128
 43
0.0
 10
-35.1358056068
 20
56.96545376
 10
-35.2454679392
 20
56.9510192448
 10
-35.3316159
 20
56.93967784
  0
LWPOLYLINE
  5
1CE
330
1F
100
AcDbEntity
  8
0
  6
Continuous
 62
     7
100
AcDbPolyline
 90
        3
 70
   128
 43
0.0
 10
-35.3316068649
 20
56.93967784
 10
-35.4412587592
 20
56.9541123552
 10
-35.52740672
 20
56.96545376
  0
LWPOLYLINE
  5
1CF
330
1F
100
AcDbEntity
  8
0
  6
Continuous
 62
     7
100
AcDbPolyline
 90
        3
 70
   128
 43
0.0
 10
-35.5273783207
 20
56.96545376
 10
-35.6295762896
 20
57.0077744272
 10
-35.70985238
 20
57.04102638
  0
LWPOLYLINE
  5
1D0
330
1F
100
AcDbEntity
  8
0
  6
Continuous
 62
     7
100
AcDbPolyline
 90
        3
 70
   128
 43
0.0
 10
-35.7098281384
 20
57.04102638
 10
-35.7975874344
 20
57.108348572
 10
-35.86652212
 20
57.16124458
  0
LWPOLYLINE
  5
1D1
330
1F
100
AcDbEntity
  8
0
  6
Continuous
 62
     7
100
AcDbPolyline
 90
        3
 70
   128
 43
0.0
 10
-35.8664989471
 20
57.16124458
 10
-35.933844312
 20
57.2489796344
 10
-35.98674032
 20
57.31791432
  0
LWPOLYLINE
  5
1D2
330
1F
100
AcDbEntity
  8
0
  6
Continuous
 62
     7
100
AcDbPolyline
 90
        3
 70
   128
 43
0.0
 10
-35.9867215157
 20
57.31791432
 10
-35.9835996608
 20
57.3197264576
 10
-35.981132
 20
57.32115028
  0
LWPOLYLINE
  5
1D3
330
1F
100
AcDbEntity
  8
0
  6
Continuous
 62
     7
100
AcDbPolyline
 90
        3
 70
   128
 43
0.0
 10
-35.981118679
 20
57.32115028
 10
-35.9948541978
 20
57.3450674467
 10
-36.00538138
 20
57.3640077
  0
LWPOLYLINE
  5
1D4
330
1F
100
AcDbEntity
  8
0
  6
Continuous
 62
     7
100
AcDbPolyline
 90
        3
 70
   128
 43
0.0
 10
-36.0053777695
 20
57.3640077
 10
-36.0218357032
 20
57.3886351336
 10
-36.0347641
 20
57.40798526
  0
LWPOLYLINE
  5
1D5
330
1F
100
AcDbEntity
  8
0
  6
Continuous
 62
     7
100
AcDbPolyline
 90
        3
 70
   128
 43
0.0
 10
-36.0347628593
 20
57.40798526
 10
-36.0718119304
 20
57.4327392872
 10
-36.10092094
 20
57.45218888
  0
LWPOLYLINE
  5
1D6
330
1F
100
AcDbEntity
  8
0
  6
Continuous
 62
     7
100
AcDbPolyline
 90
        3
 70
   128
 43
0.0
 10
-36.1008942127
 20
57.45218888
 10
-36.1446213352
 20
57.4608811664
 10
-36.17895736
 20
57.46771082
  0
LWPOLYLINE
  5
1D7
330
1F
100
AcDbEntity
  8
0
  6
Continuous
 62
     7
100
AcDbPolyline
 90
        3
 70
   128
 43
0.0
 10
-36.1789464951
 20
57.46771082
 10
-36.2226577552
 20
57.4590185336
 10
-36.25699378
 20
57.45218888
  0
LWPOLYLINE
  5
1D8
330
1F
100
AcDbEntity
  8
0
  6
Continuous
 62
     7
100
AcDbPolyline
 90
        3
 70
   128
 43
0.0
 10
-36.2569689751
 20
57.45218888
 10
-36.269375731
 20
57.4438240506
 10
-36.2789597
 20
57.43699714
  0
LWPOLYLINE
  5
1D9
330
1F
100
AcDbEntity
  8
0
  6
Continuous
 62
     7
100
AcDbPolyline
 90
        3
 70
   128
 43
0.0
 10
-36.2789332867
 20
57.43699714
 10
-38.604505468
 20
56.0943411512
 10
-40.43172
 20
55.03939716
  0
LWPOLYLINE
  5
1DA
330
1F
100
AcDbEntity
  8
0
  6
Continuous
 62
     7
100
AcDbPolyline
 90
        3
 70
   128
 43
0.0
 10
-40.4317080975
 20
55.03939716
 10
-44.5654302998
 20
47.8797533827
 10
-47.81360008
 20
42.25446718
  0
LWPOLYLINE
  5
1DB
330
1F
100
AcDbEntity
  8
0
  6
Continuous
 62
     7
100
AcDbPolyline
 90
        3
 70
   128
 43
0.0
 10
-47.8135943413
 20
42.25446718
 10
-47.821899784
 20
42.2420467832
 10
-47.82842098
 20
42.2322879
  0
LWPOLYLINE
  5
1DC
330
1F
100
AcDbEntity
  8
0
  6
Continuous
 62
     7
100
AcDbPolyline
 90
        3
 70
   128
 43
0.0
 10
-47.8284060955
 20
42.2322879
 10
-47.8371132664
 20
42.1885875048
 10
-47.84394292
 20
42.15425148
  0
LWPOLYLINE
  5
1DD
330
1F
100
AcDbEntity
  8
0
  6
Continuous
 62
     7
100
AcDbPolyline
 90
        3
 70
   128
 43
0.0
 10
-47.8439331055
 20
42.15425148
 10
-47.8352506336
 20
42.1105510848
 10
-47.82842098
 20
42.07621506
  0
LWPOLYLINE
  5
1DE
330
1F
100
AcDbEntity
  8
0
  6
Continuous
 62
     7
100
AcDbPolyline
 90
        3
 70
   128
 43
0.0
 10
-47.8284060955
 20
42.07621506
 10
-47.8036669528
 20
42.0391672296
 10
-47.78421736
 20
42.01005822
  0
LWPOLYLINE
  5
1DF
330
1F
100
AcDbEntity
  8
0
  6
Continuous
 62
     7
100
AcDbPolyline
 90
        3
 70
   128
 43
0.0
 10
-47.7842092514
 20
42.01005822
 10
-47.7595899264
 20
41.9936038968
 10
-47.7402398
 20
41.9806755
  0
LWPOLYLINE
  5
1E0
330
1F
100
AcDbEntity
  8
0
  6
Continuous
 62
     7
100
AcDbPolyline
 90
        3
 70
   128
 43
0.0
 10
-47.7402210236
 20
41.9806755
 10
-47.7162975171
 20
41.9671304309
 10
-47.69748398
 20
41.95648962
  0
LWPOLYLINE
  5
1E1
330
1F
100
AcDbEntity
  8
0
  6
Continuous
 62
     7
100
AcDbPolyline
 90
        3
 70
   128
 43
0.0
 10
-47.6974546909
 20
41.95648962
 10
-47.6956718424
 20
41.9596274344
 10
-47.69424802
 20
41.96209286
  0
LWPOLYLINE
  5
1E2
330
1F
100
AcDbEntity
  8
0
  6
Continuous
 62
     7
100
AcDbPolyline
 90
        3
 70
   128
 43
0.0
 10
-47.6942360401
 20
41.96209286
 10
-47.6065129656
 20
41.894770668
 10
-47.53757828
 20
41.84187466
  0
LWPOLYLINE
  5
1E3
330
1F
100
AcDbEntity
  8
0
  6
Continuous
 62
     7
100
AcDbPolyline
 90
        3
 70
   128
 43
0.0
 10
-47.5375652313
 20
41.84187466
 10
-47.470256088
 20
41.7541396056
 10
-47.41736008
 20
41.68520492
  0
LWPOLYLINE
  5
1E4
330
1F
100
AcDbEntity
  8
0
  6
Continuous
 62
     7
100
AcDbPolyline
 90
        3
 70
   128
 43
0.0
 10
-47.4173426628
 20
41.68520492
 10
-47.3750394128
 20
41.5830353504
 10
-47.34178746
 20
41.50275926
  0
LWPOLYLINE
  5
1E5
330
1F
100
AcDbEntity
  8
0
  6
Continuous
 62
     7
100
AcDbPolyline
 90
        3
 70
   128
 43
0.0
 10
-47.3417639732
 20
41.50275926
 10
-47.3273529448
 20
41.3931164008
 10
-47.31601154
 20
41.30696844
  0
LWPOLYLINE
  5
1E6
330
1F
100
AcDbEntity
  8
0
  6
Continuous
 62
     7
100
AcDbPolyline
 90
        3
 70
   128
 43
0.0
 10
-47.3159849644
 20
41.30696844
 10
-47.3304460552
 20
41.1973255808
 10
-47.34178746
 20
41.11117762
  0
LWPOLYLINE
  5
1E7
330
1F
100
AcDbEntity
  8
0
  6
Continuous
 62
     7
100
AcDbPolyline
 90
        3
 70
   128
 43
0.0
 10
-47.3417639732
 20
41.11117762
 10
-47.3841081272
 20
41.0090080504
 10
-47.41736008
 20
40.92873196
  0
LWPOLYLINE
  5
1E8
330
1F
100
AcDbEntity
  8
0
  6
Continuous
 62
     7
100
AcDbPolyline
 90
        3
 70
   128
 43
0.0
 10
-47.4173426628
 20
40.92873196
 10
-47.4204993168
 20
40.9305440976
 10
-47.42296586
 20
40.93196792
  0
LWPOLYLINE
  5
1E9
330
1F
100
AcDbEntity
  8
0
  6
Continuous
 62
     7
100
AcDbPolyline
 90
        3
 70
   128
 43
0.0
 10
-47.4229454994
 20
40.93196792
 10
-48.4029662987
 20
39.2345568368
 10
-49.1729649
 20
37.9008767
  0
LWPOLYLINE
  5
1EA
330
1F
100
AcDbEntity
  8
0
  6
Continuous
 62
     7
100
AcDbPolyline
 90
        3
 70
   128
 43
0.0
 10
-49.17293787
 20
37.9008767
 10
-49.1698270856
 20
37.8990645624
 10
-49.16736166
 20
37.89764074
  0
LWPOLYLINE
  5
1EB
330
1F
100
AcDbEntity
  8
0
  6
Continuous
 62
     7
100
AcDbPolyline
 90
        3
 70
   128
 43
0.0
 10
-49.1673350334
 20
37.89764074
 10
-49.234683852
 20
37.8099056856
 10
-49.28757986
 20
37.740971
  0
LWPOLYLINE
  5
1EC
330
1F
100
AcDbEntity
  8
0
  6
Continuous
 62
     7
100
AcDbPolyline
 90
        3
 70
   128
 43
0.0
 10
-49.2875576019
 20
37.740971
 10
-49.3753149144
 20
37.673648808
 10
-49.4442496
 20
37.6207528
  0
LWPOLYLINE
  5
1ED
330
1F
100
AcDbEntity
  8
0
  6
Continuous
 62
     7
100
AcDbPolyline
 90
        3
 70
   128
 43
0.0
 10
-49.4442284107
 20
37.6207528
 10
-49.5464191696
 20
37.5784321328
 10
-49.62669526
 20
37.54518018
  0
LWPOLYLINE
  5
1EE
330
1F
100
AcDbEntity
  8
0
  6
Continuous
 62
     7
100
AcDbPolyline
 90
        3
 70
   128
 43
0.0
 10
-49.6266782284
 20
37.54518018
 10
-49.7363381192
 20
37.5307456648
 10
-49.82248608
 20
37.51940426
  0
LWPOLYLINE
  5
1EF
330
1F
100
AcDbEntity
  8
0
  6
Continuous
 62
     7
100
AcDbPolyline
 90
        3
 70
   128
 43
0.0
 10
-49.8224794865
 20
37.51940426
 10
-49.9321289392
 20
37.5338387752
 10
-50.0182769
 20
37.54518018
  0
LWPOLYLINE
  5
1F0
330
1F
100
AcDbEntity
  8
0
  6
Continuous
 62
     7
100
AcDbPolyline
 90
        3
 70
   128
 43
0.0
 10
-50.0182509422
 20
37.54518018
 10
-50.1204464696
 20
37.5875008472
 10
-50.20072256
 20
37.6207528
  0
LWPOLYLINE
  5
1F1
330
1F
100
AcDbEntity
  8
0
  6
Continuous
 62
     7
100
AcDbPolyline
 90
        3
 70
   128
 43
0.0
 10
-50.2007007599
 20
37.6207528
 10
-50.1989104224
 20
37.6238920368
 10
-50.1974866
 20
37.62635858
  0
LWPOLYLINE
  5
1F2
330
1F
100
AcDbEntity
  8
0
  6
Continuous
 62
     7
100
AcDbPolyline
 90
        3
 70
   128
 43
0.0
 10
-50.1974821091
 20
37.62635858
 10
-50.2212714858
 20
37.640176891
 10
-50.23981316
 20
37.65128868
  0
LWPOLYLINE
  5
1F3
330
1F
100
AcDbEntity
  8
0
  6
Continuous
 62
     7
100
AcDbPolyline
 90
        3
 70
   128
 43
0.0
 10
-50.2398014069
 20
37.65128868
 10
-50.2522321344
 20
37.659588384
 10
-50.2619899
 20
37.66610958
  0
LWPOLYLINE
  5
1F4
330
1F
100
AcDbEntity
  8
0
  6
Continuous
 62
     7
100
AcDbPolyline
 90
        3
 70
   128
 43
0.0
 10
-50.2619743347
 20
37.66610958
 10
-50.3056902952
 20
37.6748018664
 10
-50.34002632
 20
37.68163152
  0
LWPOLYLINE
  5
1F5
330
1F
100
AcDbEntity
  8
0
  6
Continuous
 62
     7
100
AcDbPolyline
 90
        3
 70
   128
 43
0.0
 10
-50.3399968147
 20
37.68163152
 10
-50.3837267152
 20
37.6729392336
 10
-50.41806274
 20
37.66610958
  0
LWPOLYLINE
  5
1F6
330
1F
100
AcDbEntity
  8
0
  6
Continuous
 62
     7
100
AcDbPolyline
 90
        3
 70
   128
 43
0.0
 10
-50.4180490971
 20
37.66610958
 10
-50.4551105704
 20
37.6413555528
 10
-50.48421958
 20
37.62190596
  0
LWPOLYLINE
  5
1F7
330
1F
100
AcDbEntity
  8
0
  6
Continuous
 62
     7
100
AcDbPolyline
 90
        3
 70
   128
 43
0.0
 10
-50.4842102528
 20
37.62190596
 10
-50.5006083317
 20
37.597241057
 10
-50.51322892
 20
37.57771504
  0
LWPOLYLINE
  5
1F8
330
1F
100
AcDbEntity
  8
0
  6
Continuous
 62
     7
100
AcDbPolyline
 90
        3
 70
   128
 43
0.0
 10
-50.5132079124
 20
37.57771504
 10
-54.5923740874
 20
30.5125779174
 10
-57.79766952
 20
24.9615452
  0
LWPOLYLINE
  5
1F9
330
1F
100
AcDbEntity
  8
0
  6
Continuous
 62
     7
100
AcDbPolyline
 90
        3
 70
   128
 43
0.0
 10
-57.7976405621
 20
24.9615452
 10
-57.805969224
 20
24.9491248032
 10
-57.81249042
 20
24.93936592
  0
LWPOLYLINE
  5
1FA
330
1F
100
AcDbEntity
  8
0
  6
Continuous
 62
     7
100
AcDbPolyline
 90
        3
 70
   128
 43
0.0
 10
-57.8124821186
 20
24.93936592
 10
-57.8211827064
 20
24.8956655248
 10
-57.82801236
 20
24.8613295
  0
LWPOLYLINE
  5
1FB
330
1F
100
AcDbEntity
  8
0
  6
Continuous
 62
     7
100
AcDbPolyline
 90
        3
 70
   128
 43
0.0
 10
-57.8280091286
 20
24.8613295
 10
-57.8193200736
 20
24.8176291048
 10
-57.81249042
 20
24.78329308
  0
LWPOLYLINE
  5
1FC
330
1F
100
AcDbEntity
  8
0
  6
Continuous
 62
     7
100
AcDbPolyline
 90
        3
 70
   128
 43
0.0
 10
-57.8124821186
 20
24.78329308
 10
-57.7877363928
 20
24.7462452496
 10
-57.7682868
 20
24.71713624
  0
LWPOLYLINE
  5
1FD
330
1F
100
AcDbEntity
  8
0
  6
Continuous
 62
     7
100
AcDbPolyline
 90
        3
 70
   128
 43
0.0
 10
-57.7682852745
 20
24.71713624
 10
-57.7436213667
 20
24.7007470422
 10
-57.72409842
 20
24.68812436
  0
LWPOLYLINE
  5
1FE
330
1F
100
AcDbEntity
  8
0
  6
Continuous
 62
     7
100
AcDbPolyline
 90
        3
 70
   128
 43
0.0
 10
-57.7240884304
 20
24.68812436
 10
-57.7002770411
 20
24.6743716205
 10
-57.6815585
 20
24.66356764
  0
LWPOLYLINE
  5
1FF
330
1F
100
AcDbEntity
  8
0
  6
Continuous
 62
     7
100
AcDbPolyline
 90
        3
 70
   128
 43
0.0
 10
-57.681530714
 20
24.66356764
 10
-57.6797463624
 20
24.6667054544
 10
-57.67832254
 20
24.66917088
  0
LWPOLYLINE
  5
200
330
1F
100
AcDbEntity
  8
0
  6
Continuous
 62
     7
100
AcDbPolyline
 90
        3
 70
   128
 43
0.0
 10
-57.6783120632
 20
24.66917088
 10
-57.5905874856
 20
24.601848688
 10
-57.5216528
 20
24.54895268
  0
LWPOLYLINE
  5
201
330
1F
100
AcDbEntity
  8
0
  6
Continuous
 62
     7
100
AcDbPolyline
 90
        3
 70
   128
 43
0.0
 10
-57.5216412544
 20
24.54895268
 10
-57.454330608
 20
24.4612176256
 10
-57.4014346
 20
24.39228294
  0
LWPOLYLINE
  5
202
330
1F
100
AcDbEntity
  8
0
  6
Continuous
 62
     7
100
AcDbPolyline
 90
        3
 70
   128
 43
0.0
 10
-57.4014186859
 20
24.39228294
 10
-57.3591139328
 20
24.2901133704
 10
-57.32586198
 20
24.20983728
  0
LWPOLYLINE
  5
203
330
1F
100
AcDbEntity
  8
0
  6
Continuous
 62
     7
100
AcDbPolyline
 90
        3
 70
   128
 43
0.0
 10
-57.3258399963
 20
24.20983728
 10
-57.3114274648
 20
24.1001944208
 10
-57.30008606
 20
24.01404646
  0
LWPOLYLINE
  5
204
330
1F
100
AcDbEntity
  8
0
  6
Continuous
 62
     7
100
AcDbPolyline
 90
        3
 70
   128
 43
0.0
 10
-57.3000609875
 20
24.01404646
 10
-57.3145205752
 20
23.9044036008
 10
-57.32586198
 20
23.81825564
  0
LWPOLYLINE
  5
205
330
1F
100
AcDbEntity
  8
0
  6
Continuous
 62
     7
100
AcDbPolyline
 90
        3
 70
   128
 43
0.0
 10
-57.3258399963
 20
23.81825564
 10
-57.3681826472
 20
23.7160860704
 10
-57.4014346
 20
23.63580998
  0
LWPOLYLINE
  5
206
330
1F
100
AcDbEntity
  8
0
  6
Continuous
 62
     7
100
AcDbPolyline
 90
        3
 70
   128
 43
0.0
 10
-57.4014186859
 20
23.63580998
 10
-57.4045738368
 20
23.6376221176
 10
-57.40704038
 20
23.63904594
  0
LWPOLYLINE
  5
207
330
1F
100
AcDbEntity
  8
0
  6
Continuous
 62
     7
100
AcDbPolyline
 90
        3
 70
   128
 43
0.0
 10
-57.4070215225
 20
23.63904594
 10
-58.3870393963
 20
21.9416348568
 10
-59.15703688
 20
20.60795472
  0
LWPOLYLINE
  5
208
330
1F
100
AcDbEntity
  8
0
  6
Continuous
 62
     7
100
AcDbPolyline
 90
        3
 70
   128
 43
0.0
 10
-59.1570138931
 20
20.60795472
 10
-59.1538990656
 20
20.6061425824
 10
-59.15143364
 20
20.60471876
  0
LWPOLYLINE
  5
209
330
1F
100
AcDbEntity
  8
0
  6
Continuous
 62
     7
100
AcDbPolyline
 90
        3
 70
   128
 43
0.0
 10
-59.1514110565
 20
20.60471876
 10
-59.218755832
 20
20.5169837056
 10
-59.27165184
 20
20.44804902
  0
LWPOLYLINE
  5
20A
330
1F
100
AcDbEntity
  8
0
  6
Continuous
 62
     7
100
AcDbPolyline
 90
        3
 70
   128
 43
0.0
 10
-59.271633625
 20
20.44804902
 10
-59.3593868944
 20
20.380726828
 10
-59.42832158
 20
20.32783082
  0
LWPOLYLINE
  5
20B
330
1F
100
AcDbEntity
  8
0
  6
Continuous
 62
     7
100
AcDbPolyline
 90
        3
 70
   128
 43
0.0
 10
-59.4283044338
 20
20.32783082
 10
-59.5304911496
 20
20.2855101528
 10
-59.61076724
 20
20.2522582
  0
LWPOLYLINE
  5
20C
330
1F
100
AcDbEntity
  8
0
  6
Continuous
 62
     7
100
AcDbPolyline
 90
        3
 70
   128
 43
0.0
 10
-59.6107542515
 20
20.2522582
 10
-59.7204100992
 20
20.2378236848
 10
-59.80655806
 20
20.22648228
  0
LWPOLYLINE
  5
20D
330
1F
100
AcDbEntity
  8
0
  6
Continuous
 62
     7
100
AcDbPolyline
 90
        3
 70
   128
 43
0.0
 10
-59.8065555096
 20
20.22648228
 10
-59.9162009192
 20
20.2409167952
 10
-60.00234888
 20
20.2522582
  0
LWPOLYLINE
  5
20E
330
1F
100
AcDbEntity
  8
0
  6
Continuous
 62
     7
100
AcDbPolyline
 90
        3
 70
   128
 43
0.0
 10
-60.0023269653
 20
20.2522582
 10
-60.1045184496
 20
20.2945788672
 10
-60.18479454
 20
20.32783082
  0
LWPOLYLINE
  5
20F
330
1F
100
AcDbEntity
  8
0
  6
Continuous
 62
     7
100
AcDbPolyline
 90
        3
 70
   128
 43
0.0
 10
-60.184776783
 20
20.32783082
 10
-60.1829838248
 20
20.3309700568
 10
-60.18156112
 20
20.3334366
  0
LWPOLYLINE
  5
210
330
1F
100
AcDbEntity
  8
0
  6
Continuous
 62
     7
100
AcDbPolyline
 90
        3
 70
   128
 43
0.0
 10
-60.1815581322
 20
20.3334366
 10
-60.2053441373
 20
20.347254911
 10
-60.2238826
 20
20.3583667
  0
LWPOLYLINE
  5
211
330
1F
100
AcDbEntity
  8
0
  6
Continuous
 62
     7
100
AcDbPolyline
 90
        3
 70
   128
 43
0.0
 10
-60.22387743
 20
20.3583667
 10
-60.2363029968
 20
20.366666404
 10
-60.24606188
 20
20.3731876
  0
LWPOLYLINE
  5
212
330
1F
100
AcDbEntity
  8
0
  6
Continuous
 62
     7
100
AcDbPolyline
 90
        3
 70
   128
 43
0.0
 10
-60.2460503578
 20
20.3731876
 10
-60.2897622752
 20
20.3818798864
 10
-60.3240983
 20
20.38870954
  0
LWPOLYLINE
  5
213
330
1F
100
AcDbEntity
  8
0
  6
Continuous
 62
     7
100
AcDbPolyline
 90
        3
 70
   128
 43
0.0
 10
-60.3240728378
 20
20.38870954
 10
-60.3677986952
 20
20.3800172536
 10
-60.40213472
 20
20.3731876
  0
LWPOLYLINE
  5
214
330
1F
100
AcDbEntity
  8
0
  6
Continuous
 62
     7
100
AcDbPolyline
 90
        3
 70
   128
 43
0.0
 10
-60.4021251202
 20
20.3731876
 10
-60.4391825504
 20
20.3484335728
 10
-60.46829156
 20
20.32898398
  0
LWPOLYLINE
  5
215
330
1F
100
AcDbEntity
  8
0
  6
Continuous
 62
     7
100
AcDbPolyline
 90
        3
 70
   128
 43
0.0
 10
-60.4682862759
 20
20.32898398
 10
-60.4847458832
 20
20.3043565464
 10
-60.49767428
 20
20.28500642
  0
LWPOLYLINE
  5
216
330
1F
100
AcDbEntity
  8
0
  6
Continuous
 62
     7
100
AcDbPolyline
 90
        3
 70
   128
 43
0.0
 10
-60.4976713657
 20
20.28500642
 10
-64.6339821872
 20
13.1202296904
 10
-67.8839384
 20
7.49076226
  0
LWPOLYLINE
  5
217
330
1F
100
AcDbEntity
  8
0
  6
Continuous
 62
     7
100
AcDbPolyline
 90
        3
 70
   128
 43
0.0
 10
-67.8839087486
 20
7.49076226
 10
-67.8829697456
 20
4.8078982328
 10
-67.88220866
 20
2.69993364
  0
LINE
  5
218
330
1F
100
AcDbEntity
  8
0
  6
Continuous
 62
     7
100
AcDbLine
 10
-67.8821802139
 20
2.69993364
 30
0.0
 11
-67.88611264
 21
2.6999311
 31
0.0
  0
LWPOLYLINE
  5
219
330
1F
100
AcDbEntity
  8
0
  6
Continuous
 62
     7
100
AcDbPolyline
 90
        3
 70
   128
 43
0.0
 10
-67.8860545158
 20
2.6999311
 10
-67.877428888
 20
2.6562719544
 10
-67.87060594
 20
2.62196834
  0
LWPOLYLINE
  5
21A
330
1F
100
AcDbEntity
  8
0
  6
Continuous
 62
     7
100
AcDbPolyline
 90
        3
 70
   128
 43
0.0
 10
-67.8705573082
 20
2.62196834
 10
-67.8458519128
 20
2.5849205096
 10
-67.82640232
 20
2.5558115
  0
LWPOLYLINE
  5
21B
330
1F
100
AcDbEntity
  8
0
  6
Continuous
 62
     7
100
AcDbPolyline
 90
        3
 70
   128
 43
0.0
 10
-67.8263902664
 20
2.5558115
 10
-67.7893544896
 20
2.5310574728
 10
-67.76024548
 20
2.51160788
  0
LWPOLYLINE
  5
21C
330
1F
100
AcDbEntity
  8
0
  6
Continuous
 62
     7
100
AcDbPolyline
 90
        3
 70
   128
 43
0.0
 10
-67.7602291107
 20
2.51160788
 10
-67.7165450848
 20
2.5029155936
 10
-67.68220906
 20
2.49608594
  0
LWPOLYLINE
  5
21D
330
1F
100
AcDbEntity
  8
0
  6
Continuous
 62
     7
100
AcDbPolyline
 90
        3
 70
   128
 43
0.0
 10
-67.6822066307
 20
2.49608594
 10
-67.6541692888
 20
2.4982807032
 10
-67.63213804
 20
2.50000516
  0
LWPOLYLINE
  5
21E
330
1F
100
AcDbEntity
  8
0
  6
Continuous
 62
     7
100
AcDbPolyline
 90
        3
 70
   128
 43
0.0
 10
-67.6320791245
 20
2.50000516
 10
-67.63213804
 20
2.5036294352
 10
-67.63213804
 20
2.50647708
  0
LWPOLYLINE
  5
21F
330
1F
100
AcDbEntity
  8
0
  6
Continuous
 62
     7
100
AcDbPolyline
 90
        3
 70
   128
 43
0.0
 10
-67.6320791245
 20
2.50647708
 10
-67.5224951808
 20
2.4920425648
 10
-67.43634722
 20
2.48070116
  0
LWPOLYLINE
  5
220
330
1F
100
AcDbEntity
  8
0
  6
Continuous
 62
     7
100
AcDbPolyline
 90
        3
 70
   128
 43
0.0
 10
-67.436337471
 20
2.48070116
 10
-67.3341776504
 20
2.4383804928
 10
-67.25390156
 20
2.40512854
  0
LWPOLYLINE
  5
221
330
1F
100
AcDbEntity
  8
0
  6
Continuous
 62
     7
100
AcDbPolyline
 90
        3
 70
   128
 43
0.0
 10
-67.2538876534
 20
2.40512854
 10
-67.1661665056
 20
2.337806348
 10
-67.09723182
 20
2.28491034
  0
LWPOLYLINE
  5
222
330
1F
100
AcDbEntity
  8
0
  6
Continuous
 62
     7
100
AcDbPolyline
 90
        3
 70
   128
 43
0.0
 10
-67.0971870422
 20
2.28491034
 10
-67.029909628
 20
2.1971752856
 10
-66.97701362
 20
2.1282406
  0
LWPOLYLINE
  5
223
330
1F
100
AcDbEntity
  8
0
  6
Continuous
 62
     7
100
AcDbPolyline
 90
        3
 70
   128
 43
0.0
 10
-66.9769644737
 20
2.1282406
 10
-66.9346929528
 20
2.0260710304
 10
-66.901441
 20
1.94579494
  0
LWPOLYLINE
  5
224
330
1F
100
AcDbEntity
  8
0
  6
Continuous
 62
     7
100
AcDbPolyline
 90
        3
 70
   128
 43
0.0
 10
-66.9013857841
 20
1.94579494
 10
-66.8870064848
 20
1.8361520808
 10
-66.87566508
 20
1.75000412
  0
LWPOLYLINE
  5
225
330
1F
100
AcDbEntity
  8
0
  6
Continuous
 62
     7
100
AcDbPolyline
 90
        3
 70
   128
 43
0.0
 10
-66.8756365776
 20
1.75000412
 10
-66.8792893552
 20
-0.2099962272
 10
-66.882137
 20
-1.7499965
  0
LINE
  5
226
330
1F
100
AcDbEntity
  8
0
  6
Continuous
 62
     7
100
AcDbLine
 10
-66.8821334839
 20
-1.7499965
 30
0.0
 11
-66.87566508
 21
-1.7499965
 31
0.0
  0
LWPOLYLINE
  5
227
330
1F
100
AcDbEntity
  8
0
  6
Continuous
 62
     7
100
AcDbPolyline
 90
        3
 70
   128
 43
0.0
 10
-66.8756365776
 20
-1.7499965
 10
-66.8900995952
 20
-1.8596393592
 10
-66.901441
 20
-1.94578732
  0
LWPOLYLINE
  5
228
330
1F
100
AcDbEntity
  8
0
  6
Continuous
 62
     7
100
AcDbPolyline
 90
        3
 70
   128
 43
0.0
 10
-66.9013857841
 20
-1.94578732
 10
-66.9437616672
 20
-2.0479568896
 10
-66.97701362
 20
-2.12823298
  0
LWPOLYLINE
  5
229
330
1F
100
AcDbEntity
  8
0
  6
Continuous
 62
     7
100
AcDbPolyline
 90
        3
 70
   128
 43
0.0
 10
-66.9769644737
 20
-2.12823298
 10
-67.044335812
 20
-2.2159680344
 10
-67.09723182
 20
-2.28490272
  0
LWPOLYLINE
  5
22A
330
1F
100
AcDbEntity
  8
0
  6
Continuous
 62
     7
100
AcDbPolyline
 90
        3
 70
   128
 43
0.0
 10
-67.0971870422
 20
-2.28490272
 10
-67.1849668744
 20
-2.352224912
 10
-67.25390156
 20
-2.40512092
  0
LWPOLYLINE
  5
22B
330
1F
100
AcDbEntity
  8
0
  6
Continuous
 62
     7
100
AcDbPolyline
 90
        3
 70
   128
 43
0.0
 10
-67.2538876534
 20
-2.40512092
 10
-67.3560711296
 20
-2.4474415872
 10
-67.43634722
 20
-2.48069354
  0
LWPOLYLINE
  5
22C
330
1F
100
AcDbEntity
  8
0
  6
Continuous
 62
     7
100
AcDbPolyline
 90
        3
 70
   128
 43
0.0
 10
-67.436337471
 20
-2.48069354
 10
-67.5459900792
 20
-2.4951280552
 10
-67.63213804
 20
-2.50646946
  0
LWPOLYLINE
  5
22D
330
1F
100
AcDbEntity
  8
0
  6
Continuous
 62
     7
100
AcDbPolyline
 90
        3
 70
   128
 43
0.0
 10
-67.6320791245
 20
-2.50646946
 10
-67.6601778112
 20
-2.5028451848
 10
-67.68220906
 20
-2.49999754
  0
LWPOLYLINE
  5
22E
330
1F
100
AcDbEntity
  8
0
  6
Continuous
 62
     7
100
AcDbPolyline
 90
        3
 70
   128
 43
0.0
 10
-67.6822066307
 20
-2.49999754
 10
-67.68220906
 20
-2.4978027768
 10
-67.68220906
 20
-2.49607832
  0
LWPOLYLINE
  5
22F
330
1F
100
AcDbEntity
  8
0
  6
Continuous
 62
     7
100
AcDbPolyline
 90
        3
 70
   128
 43
0.0
 10
-67.6822066307
 20
-2.49607832
 10
-67.7259094552
 20
-2.5047706064
 10
-67.76024548
 20
-2.51160026
  0
LWPOLYLINE
  5
230
330
1F
100
AcDbEntity
  8
0
  6
Continuous
 62
     7
100
AcDbPolyline
 90
        3
 70
   128
 43
0.0
 10
-67.7602291107
 20
-2.51160026
 10
-67.7972933104
 20
-2.5363542872
 10
-67.82640232
 20
-2.55580388
  0
LWPOLYLINE
  5
231
330
1F
100
AcDbEntity
  8
0
  6
Continuous
 62
     7
100
AcDbPolyline
 90
        3
 70
   128
 43
0.0
 10
-67.8263902664
 20
-2.55580388
 10
-67.8511563472
 20
-2.5928517104
 10
-67.87060594
 20
-2.62196072
  0
LWPOLYLINE
  5
232
330
1F
100
AcDbEntity
  8
0
  6
Continuous
 62
     7
100
AcDbPolyline
 90
        3
 70
   128
 43
0.0
 10
-67.8705573082
 20
-2.62196072
 10
-67.879289692
 20
-2.6656198656
 10
-67.88611264
 20
-2.69992348
  0
LWPOLYLINE
  5
233
330
1F
100
AcDbEntity
  8
0
  6
Continuous
 62
     7
100
AcDbPolyline
 90
        3
 70
   128
 43
0.0
 10
-67.8860545158
 20
-2.69992348
 10
-67.8848950656
 20
-5.3855227824
 10
-67.8839384
 20
-7.49563652
  0
LWPOLYLINE
  5
234
330
1F
100
AcDbEntity
  8
0
  6
Continuous
 62
     7
100
AcDbPolyline
 90
        3
 70
   128
 43
0.0
 10
-67.8839087486
 20
-7.49563652
 10
-63.7501080086
 20
-14.6557928051
 10
-60.50235296
 20
-20.28177808
  0
LWPOLYLINE
  5
235
330
1F
100
AcDbEntity
  8
0
  6
Continuous
 62
     7
100
AcDbPolyline
 90
        3
 70
   128
 43
0.0
 10
-60.5023503304
 20
-20.28177808
 10
-60.4858986368
 20
-20.3064055136
 10
-60.47297024
 20
-20.32575564
  0
LWPOLYLINE
  5
236
330
1F
100
AcDbEntity
  8
0
  6
Continuous
 62
     7
100
AcDbPolyline
 90
        3
 70
   128
 43
0.0
 10
-60.4729652405
 20
-20.32575564
 10
-60.4359224096
 20
-20.3505096672
 10
-60.4068134
 20
-20.36995926
  0
LWPOLYLINE
  5
237
330
1F
100
AcDbEntity
  8
0
  6
Continuous
 62
     7
100
AcDbPolyline
 90
        3
 70
   128
 43
0.0
 10
-60.4068040848
 20
-20.36995926
 10
-60.3631130048
 20
-20.3786515464
 10
-60.32877698
 20
-20.3854812
  0
LWPOLYLINE
  5
238
330
1F
100
AcDbEntity
  8
0
  6
Continuous
 62
     7
100
AcDbPolyline
 90
        3
 70
   128
 43
0.0
 10
-60.3287518024
 20
-20.3854812
 10
-60.2850765848
 20
-20.3767889136
 10
-60.25074056
 20
-20.36995926
  0
LWPOLYLINE
  5
239
330
1F
100
AcDbEntity
  8
0
  6
Continuous
 62
     7
100
AcDbPolyline
 90
        3
 70
   128
 43
0.0
 10
-60.2507293224
 20
-20.36995926
 10
-60.238359055
 20
-20.3615948766
 10
-60.22877718
 20
-20.35477006
  0
LWPOLYLINE
  5
23A
330
1F
100
AcDbEntity
  8
0
  6
Continuous
 62
     7
100
AcDbPolyline
 90
        3
 70
   128
 43
0.0
 10
-60.2287650108
 20
-20.35477006
 10
-60.203771388
 20
-20.3403312776
 10
-60.18412398
 20
-20.32898652
  0
LWPOLYLINE
  5
23B
330
1F
100
AcDbEntity
  8
0
  6
Continuous
 62
     7
100
AcDbPolyline
 90
        3
 70
   128
 43
0.0
 10
-60.1841211319
 20
-20.32898652
 10
-60.1859361176
 20
-20.3258487056
 10
-60.18735994
 20
-20.32338328
  0
LWPOLYLINE
  5
23C
330
1F
100
AcDbEntity
  8
0
  6
Continuous
 62
     7
100
AcDbPolyline
 90
        3
 70
   128
 43
0.0
 10
-60.1873397827
 20
-20.32338328
 10
-60.0851903704
 20
-20.2810626128
 10
-60.00491428
 20
-20.24781066
  0
LWPOLYLINE
  5
23D
330
1F
100
AcDbEntity
  8
0
  6
Continuous
 62
     7
100
AcDbPolyline
 90
        3
 70
   128
 43
0.0
 10
-60.0048899651
 20
-20.24781066
 10
-59.8952714208
 20
-20.2333761448
 10
-59.80912346
 20
-20.22203474
  0
LWPOLYLINE
  5
23E
330
1F
100
AcDbEntity
  8
0
  6
Continuous
 62
     7
100
AcDbPolyline
 90
        3
 70
   128
 43
0.0
 10
-59.8091185093
 20
-20.22203474
 10
-59.6994806008
 20
-20.2364692552
 10
-59.61333264
 20
-20.24781066
  0
LWPOLYLINE
  5
23F
330
1F
100
AcDbEntity
  8
0
  6
Continuous
 62
     7
100
AcDbPolyline
 90
        3
 70
   128
 43
0.0
 10
-59.6133172512
 20
-20.24781066
 10
-59.5111630704
 20
-20.2901313272
 10
-59.43088698
 20
-20.32338328
  0
LWPOLYLINE
  5
240
330
1F
100
AcDbEntity
  8
0
  6
Continuous
 62
     7
100
AcDbPolyline
 90
        3
 70
   128
 43
0.0
 10
-59.4308674335
 20
-20.32338328
 10
-59.3431519256
 20
-20.390705472
 10
-59.27421724
 20
-20.44360148
  0
LWPOLYLINE
  5
241
330
1F
100
AcDbEntity
  8
0
  6
Continuous
 62
     7
100
AcDbPolyline
 90
        3
 70
   128
 43
0.0
 10
-59.2741966248
 20
-20.44360148
 10
-59.206895048
 20
-20.5313365344
 10
-59.15399904
 20
-20.60027122
  0
LWPOLYLINE
  5
242
330
1F
100
AcDbEntity
  8
0
  6
Continuous
 62
     7
100
AcDbPolyline
 90
        3
 70
   128
 43
0.0
 10
-59.1539740562
 20
-20.60027122
 10
-58.1771369459
 20
-22.2994939947
 10
-57.4096007
 20
-23.63459586
  0
LWPOLYLINE
  5
243
330
1F
100
AcDbEntity
  8
0
  6
Continuous
 62
     7
100
AcDbPolyline
 90
        3
 70
   128
 43
0.0
 10
-57.4095845222
 20
-23.63459586
 10
-57.4064628856
 20
-23.6327837224
 10
-57.40399746
 20
-23.6313599
  0
LWPOLYLINE
  5
244
330
1F
100
AcDbEntity
  8
0
  6
Continuous
 62
     7
100
AcDbPolyline
 90
        3
 70
   128
 43
0.0
 10
-57.4039816856
 20
-23.6313599
 10
-57.3616767928
 20
-23.7335294696
 10
-57.32842484
 20
-23.81380556
  0
LWPOLYLINE
  5
245
330
1F
100
AcDbEntity
  8
0
  6
Continuous
 62
     7
100
AcDbPolyline
 90
        3
 70
   128
 43
0.0
 10
-57.3284029961
 20
-23.81380556
 10
-57.3139903248
 20
-23.9234484192
 10
-57.30264892
 20
-24.00959638
  0
LWPOLYLINE
  5
246
330
1F
100
AcDbEntity
  8
0
  6
Continuous
 62
     7
100
AcDbPolyline
 90
        3
 70
   128
 43
0.0
 10
-57.3026239872
 20
-24.00959638
 10
-57.3170834352
 20
-24.1192392392
 10
-57.32842484
 20
-24.2053872
  0
LWPOLYLINE
  5
247
330
1F
100
AcDbEntity
  8
0
  6
Continuous
 62
     7
100
AcDbPolyline
 90
        3
 70
   128
 43
0.0
 10
-57.3284029961
 20
-24.2053872
 10
-57.3707455072
 20
-24.3075567696
 10
-57.40399746
 20
-24.38783286
  0
LWPOLYLINE
  5
248
330
1F
100
AcDbEntity
  8
0
  6
Continuous
 62
     7
100
AcDbPolyline
 90
        3
 70
   128
 43
0.0
 10
-57.4039816856
 20
-24.38783286
 10
-57.471319652
 20
-24.4755679144
 10
-57.52421566
 20
-24.5445026
  0
LWPOLYLINE
  5
249
330
1F
100
AcDbEntity
  8
0
  6
Continuous
 62
     7
100
AcDbPolyline
 90
        3
 70
   128
 43
0.0
 10
-57.5242042542
 20
-24.5445026
 10
-57.6119507144
 20
-24.611824792
 10
-57.6808854
 20
-24.6647208
  0
LWPOLYLINE
  5
24A
330
1F
100
AcDbEntity
  8
0
  6
Continuous
 62
     7
100
AcDbPolyline
 90
        3
 70
   128
 43
0.0
 10
-57.6808750629
 20
-24.6647208
 10
-57.68269896
 20
-24.6615829856
 10
-57.6841239
 20
-24.65911756
  0
LWPOLYLINE
  5
24B
330
1F
100
AcDbEntity
  8
0
  6
Continuous
 62
     7
100
AcDbPolyline
 90
        3
 70
   128
 43
0.0
 10
-57.6841235161
 20
-24.65911756
 10
-57.709165739
 20
-24.6734883722
 10
-57.72898792
 20
-24.68452518
  0
LWPOLYLINE
  5
24C
330
1F
100
AcDbEntity
  8
0
  6
Continuous
 62
     7
100
AcDbPolyline
 90
        3
 70
   128
 43
0.0
 10
-57.7289760113
 20
-24.68452518
 10
-57.753616776
 20
-24.7009795032
 10
-57.77296802
 20
-24.7139079
  0
LWPOLYLINE
  5
24D
330
1F
100
AcDbEntity
  8
0
  6
Continuous
 62
     7
100
AcDbPolyline
 90
        3
 70
   128
 43
0.0
 10
-57.7729642391
 20
-24.7139079
 10
-57.7977220472
 20
-24.7509557304
 10
-57.81717164
 20
-24.78006474
  0
LWPOLYLINE
  5
24E
330
1F
100
AcDbEntity
  8
0
  6
Continuous
 62
     7
100
AcDbPolyline
 90
        3
 70
   128
 43
0.0
 10
-57.8171610832
 20
-24.78006474
 10
-57.8258639264
 20
-24.8237651352
 10
-57.83269358
 20
-24.85810116
  0
LWPOLYLINE
  5
24F
330
1F
100
AcDbEntity
  8
0
  6
Continuous
 62
     7
100
AcDbPolyline
 90
        3
 70
   128
 43
0.0
 10
-57.8326880932
 20
-24.85810116
 10
-57.8240012936
 20
-24.9018015552
 10
-57.81717164
 20
-24.93613758
  0
POINT
  5
250
330
1F
100
AcDbEntity
  8
0
  6
Continuous
 62
     7
100
AcDbPoint
 10
51.9684254
 20
7.49076226
 30
0.0
  0
POINT
  5
251
330
1F
100
AcDbEntity
  8
0
  6
Continuous
 62
     7
100
AcDbPoint
 10
31.92228312
 20
-18.4900520378
 30
0.0
  0
POINT
  5
252
330
1F
100
AcDbEntity
  8
0
  6
Continuous
 62
     7
100
AcDbPoint
 10
-45.4735946
 20
16.87576
 30
0.0
  0
ENDSEC
  0
SECTION
  2
OBJECTS
  0
DICTIONARY
  5
C
330
0
100
AcDbDictionary
281
     1
  3
ACAD_GROUP
350
D
  3
ACAD_LAYOUT
350
1A
  3
ACAD_MLINESTYLE
350
17
  3
ACAD_PLOTSETTINGS
350
19
  3
ACAD_PLOTSTYLENAME
350
E
  3
ACAD_SCALELIST
350
47
  0
DICTIONARY
  5
D
102
{ACAD_REACTORS
330
C
102
}
330
C
100
AcDbDictionary
281
     1
  0
DICTIONARY
  5
1A
102
{ACAD_REACTORS
330
C
102
}
330
C
100
AcDbDictionary
281
     1
  3
Layout1
350
1E
  3
Layout2
350
26
  3
Model
350
22
  0
DICTIONARY
  5
17
102
{ACAD_REACTORS
330
C
102
}
330
C
100
AcDbDictionary
281
     1
  3
Standard
350
18
  0
DICTIONARY
  5
19
102
{ACAD_REACTORS
330
C
102
}
330
C
100
AcDbDictionary
281
     1
  0
ACDBDICTIONARYWDFLT
  5
E
102
{ACAD_REACTORS
330
C
102
}
330
C
100
AcDbDictionary
281
     1
  3
Normal
350
F
100
AcDbDictionaryWithDefault
340
F
  0
DICTIONARY
  5
47
102
{ACAD_REACTORS
330
C
102
}
330
C
100
AcDbDictionary
281
     1
  3
A0
350
48
  3
A1
350
49
  3
A2
350
4A
  3
A3
350
4B
  3
A4
350
4C
  3
A5
350
4D
  3
A6
350
4E
  3
A7
350
4F
  3
A8
350
50
  3
A9
350
51
  3
B0
350
52
  3
B1
350
53
  3
B2
350
54
  3
B3
350
55
  3
B4
350
56
  3
B5
350
57
  3
B6
350
58
  3
B7
350
59
  3
B8
350
5A
  3
B9
350
5B
  3
C0
350
5C
  3
C1
350
5D
  3
C2
350
5E
  3
C3
350
5F
  3
C4
350
60
  3
C5
350
61
  3
C6
350
62
  3
C7
350
63
  3
C8
350
64
  3
C9
350
65
  3
D0
350
66
  3
D1
350
67
  3
D2
350
68
  0
LAYOUT
  5
1E
102
{ACAD_REACTORS
330
1A
102
}
330
1A
100
AcDbPlotSettings
  1

  2
none_device
  4

  6

 40
0.0
 41
0.0
 42
0.0
 43
0.0
 44
0.0
 45
0.0
 46
0.0
 47
0.0
 48
0.0
 49
0.0
140
0.0
141
0.0
142
1.0
143
1.0
 70
   688
 72
     1
 73
     0
 74
     5
  7

 75
    16
147
1.0
148
0.0
149
0.0
100
AcDbLayout
  1
Layout1
 70
     1
 71
     1
 10
0.0
 20
0.0
 11
420.0
 21
297.0
 12
0.0
 22
0.0
 32
0.0
 14
1.0000000000E+20
 24
1.0000000000E+20
 34
1.0000000000E+20
 15
-1.0000000000E+20
 25
-1.0000000000E+20
 35
-1.0000000000E+20
146
0.0
 13
0.0
 23
0.0
 33
0.0
 16
1.0
 26
0.0
 36
0.0
 17
0.0
 27
1.0
 37
0.0
 76
     0
330
1B
  0
LAYOUT
  5
26
102
{ACAD_REACTORS
330
1A
102
}
330
1A
100
AcDbPlotSettings
  1

  2
none_device
  4

  6

 40
0.0
 41
0.0
 42
0.0
 43
0.0
 44
0.0
 45
0.0
 46
0.0
 47
0.0
 48
0.0
 49
0.0
140
0.0
141
0.0
142
1.0
143
1.0
 70
   688
 72
     1
 73
     0
 74
     5
  7

 75
    16
147
1.0
148
0.0
149
0.0
100
AcDbLayout
  1
Layout2
 70
     1
 71
     2
 10
0.0
 20
0.0
 11
0.0
 21
0.0
 12
0.0
 22
0.0
 32
0.0
 14
0.0
 24
0.0
 34
0.0
 15
0.0
 25
0.0
 35
0.0
146
0.0
 13
0.0
 23
0.0
 33
0.0
 16
1.0
 26
0.0
 36
0.0
 17
0.0
 27
1.0
 37
0.0
 76
     0
330
23
  0
LAYOUT
  5
22
102
{ACAD_REACTORS
330
1A
102
}
330
1A
100
AcDbPlotSettings
  1

  2
none_device
  4
ANSI_A_(11.00_x_8.50_Inches)
  6

 40
6.35
 41
19.05
 42
6.35000508
 43
19.05000254
 44
279.4
 45
215.9
 46
133.3500495494
 47
88.9041637121
 48
0.0
 49
0.0
140
0.0
141
0.0
142
0.0672822843
143
1.0
 70
  1696
 72
     0
 73
     0
 74
     0
  7

 75
     0
147
0.0179189148
148
-1300.4909072572
149
0.0
100
AcDbLayout
  1
Model
 70
     1
 71
     0
 10
0.0
 20
0.0
 11
420.0
 21
297.0
 12
0.0
 22
0.0
 32
0.0
 14
-67.88611264
 24
-62.53747208
 34
0.0
 15
67.88605168
 25
62.53259782
 35
0.0
146
0.0
 13
0.0
 23
0.0
 33
0.0
 16
1.0
 26
0.0
 36
0.0
 17
0.0
 27
1.0
 37
0.0
 76
     0
330
1F
331
29
  0
MLINESTYLE
  5
18
102
{ACAD_REACTORS
330
17
102
}
330
17
100
AcDbMlineStyle
  2
Standard
 70
     0
  3

 62
   256
 51
90.0
 52
90.0
 71
     2
 49
0.5
 62
   256
  6
BYLAYER
 49
-0.5
 62
   256
  6
BYLAYER
  0
ACDBPLACEHOLDER
  5
F
102
{ACAD_REACTORS
330
E
102
}
330
E
  0
SCALE
  5
48
102
{ACAD_REACTORS
330
47
102
}
330
47
100
AcDbScale
 70
     0
300
1:1
140
1.0
141
1.0
290
     1
  0
SCALE
  5
49
102
{ACAD_REACTORS
330
47
102
}
330
47
100
AcDbScale
 70
     0
300
1:2
140
1.0
141
2.0
290
     0
  0
SCALE
  5
4A
102
{ACAD_REACTORS
330
47
102
}
330
47
100
AcDbScale
 70
     0
300
1:4
140
1.0
141
4.0
290
     0
  0
SCALE
  5
4B
102
{ACAD_REACTORS
330
47
102
}
330
47
100
AcDbScale
 70
     0
300
1:5
140
1.0
141
5.0
290
     0
  0
SCALE
  5
4C
102
{ACAD_REACTORS
330
47
102
}
330
47
100
AcDbScale
 70
     0
300
1:8
140
1.0
141
8.0
290
     0
  0
SCALE
  5
4D
102
{ACAD_REACTORS
330
47
102
}
330
47
100
AcDbScale
 70
     0
300
1:10
140
1.0
141
10.0
290
     0
  0
SCALE
  5
4E
102
{ACAD_REACTORS
330
47
102
}
330
47
100
AcDbScale
 70
     0
300
1:16
140
1.0
141
16.0
290
     0
  0
SCALE
  5
4F
102
{ACAD_REACTORS
330
47
102
}
330
47
100
AcDbScale
 70
     0
300
1:20
140
1.0
141
20.0
290
     0
  0
SCALE
  5
50
102
{ACAD_REACTORS
330
47
102
}
330
47
100
AcDbScale
 70
     0
300
1:30
140
1.0
141
30.0
290
     0
  0
SCALE
  5
51
102
{ACAD_REACTORS
330
47
102
}
330
47
100
AcDbScale
 70
     0
300
1:40
140
1.0
141
40.0
290
     0
  0
SCALE
  5
52
102
{ACAD_REACTORS
330
47
102
}
330
47
100
AcDbScale
 70
     0
300
1:50
140
1.0
141
50.0
290
     0
  0
SCALE
  5
53
102
{ACAD_REACTORS
330
47
102
}
330
47
100
AcDbScale
 70
     0
300
1:100
140
1.0
141
100.0
290
     0
  0
SCALE
  5
54
102
{ACAD_REACTORS
330
47
102
}
330
47
100
AcDbScale
 70
     0
300
2:1
140
2.0
141
1.0
290
     0
  0
SCALE
  5
55
102
{ACAD_REACTORS
330
47
102
}
330
47
100
AcDbScale
 70
     0
300
4:1
140
4.0
141
1.0
290
     0
  0
SCALE
  5
56
102
{ACAD_REACTORS
330
47
102
}
330
47
100
AcDbScale
 70
     0
300
8:1
140
8.0
141
1.0
290
     0
  0
SCALE
  5
57
102
{ACAD_REACTORS
330
47
102
}
330
47
100
AcDbScale
 70
     0
300
10:1
140
10.0
141
1.0
290
     0
  0
SCALE
  5
58
102
{ACAD_REACTORS
330
47
102
}
330
47
100
AcDbScale
 70
     0
300
100:1
140
100.0
141
1.0
290
     0
  0
SCALE
  5
59
102
{ACAD_REACTORS
330
47
102
}
330
47
100
AcDbScale
 70
     0
300
1/128" = 1'-0"
140
0.0078125
141
12.0
290
     0
  0
SCALE
  5
5A
102
{ACAD_REACTORS
330
47
102
}
330
47
100
AcDbScale
 70
     0
300
1/64" = 1'-0"
140
0.015625
141
12.0
290
     0
  0
SCALE
  5
5B
102
{ACAD_REACTORS
330
47
102
}
330
47
100
AcDbScale
 70
     0
300
1/32" = 1'-0"
140
0.03125
141
12.0
290
     0
  0
SCALE
  5
5C
102
{ACAD_REACTORS
330
47
102
}
330
47
100
AcDbScale
 70
     0
300
1/16" = 1'-0"
140
0.0625
141
12.0
290
     0
  0
SCALE
  5
5D
102
{ACAD_REACTORS
330
47
102
}
330
47
100
AcDbScale
 70
     0
300
3/32" = 1'-0"
140
0.09375
141
12.0
290
     0
  0
SCALE
  5
5E
102
{ACAD_REACTORS
330
47
102
}
330
47
100
AcDbScale
 70
     0
300
1/8" = 1'-0"
140
0.125
141
12.0
290
     0
  0
SCALE
  5
5F
102
{ACAD_REACTORS
330
47
102
}
330
47
100
AcDbScale
 70
     0
300
3/16" = 1'-0"
140
0.1875
141
12.0
290
     0
  0
SCALE
  5
60
102
{ACAD_REACTORS
330
47
102
}
330
47
100
AcDbScale
 70
     0
300
1/4" = 1'-0"
140
0.25
141
12.0
290
     0
  0
SCALE
  5
61
102
{ACAD_REACTORS
330
47
102
}
330
47
100
AcDbScale
 70
     0
300
3/8" = 1'-0"
140
0.375
141
12.0
290
     0
  0
SCALE
  5
62
102
{ACAD_REACTORS
330
47
102
}
330
47
100
AcDbScale
 70
     0
300
1/2" = 1'-0"
140
0.5
141
12.0
290
     0
  0
SCALE
  5
63
102
{ACAD_REACTORS
330
47
102
}
330
47
100
AcDbScale
 70
     0
300
3/4" = 1'-0"
140
0.75
141
12.0
290
     0
  0
SCALE
  5
64
102
{ACAD_REACTORS
330
47
102
}
330
47
100
AcDbScale
 70
     0
300
1" = 1'-0"
140
1.0
141
12.0
290
     0
  0
SCALE
  5
65
102
{ACAD_REACTORS
330
47
102
}
330
47
100
AcDbScale
 70
     0
300
1-1/2" = 1'-0"
140
1.5
141
12.0
290
     0
  0
SCALE
  5
66
102
{ACAD_REACTORS
330
47
102
}
330
47
100
AcDbScale
 70
     0
300
3" = 1'-0"
140
3.0
141
12.0
290
     0
  0
SCALE
  5
67
102
{ACAD_REACTORS
330
47
102
}
330
47
100
AcDbScale
 70
     0
300
6" = 1'-0"
140
6.0
141
12.0
290
     0
  0
SCALE
  5
68
102
{ACAD_REACTORS
330
47
102
}
330
47
100
AcDbScale
 70
     0
300
1'-0" = 1'-0"
140
12.0
141
12.0
290
     0
  0
ENDSEC
  0
EOF
